<svg><defs><font id="SFProIconsRegular" horiz-adv-x="2444"><font-face font-family="SF Pro Icons Regular" font-weight="400" units-per-em="2048" panose-1="2 0 5 3 0 0 0 0 0 0" ascent="1554" descent="-494" bbox="0 -494 2444 1950" underline-thickness="0" underline-position="20" unicode-range="U+0020-F8FF"/><glyph glyph-name=".notdef" horiz-adv-x="0"/><glyph glyph-name="glyph1" horiz-adv-x="0"/><glyph glyph-name="glyph2" horiz-adv-x="682"/><glyph glyph-name="space" horiz-adv-x="4000"/><glyph glyph-name="block" unicode="█" d="M0 1950h2444V-494H0v2444z"/><glyph glyph-name="uniEA01" unicode="" d="M1537 1313h-9v-68h9l6 3 2 6v50l-2 6zm-451 0h-9v-68h9l6 3 2 6v50l-3 6zm634 26H724q-48 0-80-32-33-34-33-78V232q0-47 33.5-81t79.5-34h996q45 0 79 34t34 81v997q0 45-34 78-31 32-79 32zm-100-123q39 0 64-25 27-27 27-62v-26l-117 113h26zm91-183v-70l-257 253h70zm-205 293h42q20 0 20-21v-51q0-11-5-17.5t-15-6.5h-42v96zm-75 0h52v-13h-28v-27h19v-13h-19v-28h28v-15h-52v96zm-96 0h6l52-48v48h13v-96h-6l-54 51v-51h-11v96zm49-110l327-323v-71l-397 394h70zm327-464v-73l-540 537h73l467-464zm0-143v-71l-680 678h69zm-425 717h24v-96h-24v96zm-70 2h53v-15h-30v-27h21v-13h-21v-41h-23v96zm-77-2h53v-13h-28v-27h19v-13h-19v-28h28v-15h-53v96zm-84 0h42q20 0 20-21v-51q0-11-5-17.5t-15-6.5h-42v96zm-94 0h6l54-48v48h13v-96h-7l-55 51v-51h-11v96zm-85 0h23v-72l2-6 5-2 7 2 3 6v72h22v-72q0-11-5.5-17.5T917 1230h-21q-20 0-20 23v73zm-143-302l782-783h-70L733 954v70zm0-141l641-642h-69L733 814v69zm0-210v70l502-502h-70zm361-432h-70L733 532v71zm-333 27q-22 22-26 52l77-78q-30 4-51 26zm177-112q0-11-5.5-17.5T917 132h-21q-20 0-20 23v73h23v-72l2-6 5-3 7 3 3 6v72h22v-72zm-54 85L733 391v70l221-220h-70zm150-109h-7l-55 51v-51h-11v96h6l54-48v48h13v-96zm83 24q0-24-20-24h-42v97l42-1q20 0 20-21v-51zm75 57h-28v-28h19v-13h-19v-27h28v-13h-53v96h53v-15zm77 0h-30v-28h21v-13h-21v-40h-23v96h53v-15zm41-81h-24v96h24v-96zm96 0h-6l-54 51v-51h-11v96h6l52-48v48h13v-96zm77 81h-28v-28h19v-13h-19v-27h28v-13h-52v96h52v-15zm85-57q0-24-20-24h-42v97l41-1q21 0 21-21v-51zm52 85h-35l-852 853v35q0 15 6 31l911-913q-15-6-30-6zm71 36l-922 924q23 17 51 18l890-891q-2-28-19-51zm20 121l-820 818h69l751-748v-70zm-625-185h-9v-68h9l6 4 2 7v50l-3 5zm451 0h-9v-68h9l6 4 2 7v50l-2 5z"/><glyph glyph-name="uniEA02" unicode="" d="M1086 1313h-9v-68h9l6 3 2 6v50l-3 6zm451 0h-9v-68h9l6 3 2 6v50l-2 6zM1086 213h-9v-68h9l6 4 2 7v50l-3 5zm634 1126H724q-48 0-80-32-33-34-33-78V232q0-47 33.5-81t79.5-34h996q45 0 79 34t34 81v997q0 45-34 78-31 32-79 32zm-100-123q39 0 64-25 27-27 27-62v-26l-117 113h26zm91-183v-70l-257 253h70zm-205 293h42q20 0 20-21v-51q0-11-5-17.5t-15-6.5h-42v96zm-75 0h52v-13h-28v-27h19v-13h-19v-28h28v-15h-52v96zm-96 0h6l52-48v48h13v-96h-6l-54 51v-51h-11v96zm49-110l327-323v-71l-397 394h70zm327-464v-73l-540 537h73l467-464zm0-143v-71l-680 678h69zm-425 717h24v-96h-24v96zm-70 2h53v-15h-30v-27h21v-13h-21v-41h-23v96zm-77-2h53v-13h-28v-27h19v-13h-19v-28h28v-15h-53v96zm-84 0h42q20 0 20-21v-51q0-11-5-17.5t-15-6.5h-42v96zm-94 0h6l54-48v48h13v-96h-7l-55 51v-51h-11v96zm-85 0h23v-72l2-6 5-2 7 2 3 6v72h22v-72q0-11-5.5-17.5T917 1230h-21q-20 0-20 23v73zm-143-302l782-783h-70L733 954v70zm0-141l641-642h-69L733 814v69zm0-210v70l502-502h-70zm361-432h-70L733 532v71zm-333 27q-22 22-26 52l77-78q-30 4-51 26zm177-112q0-11-5.5-17.5T917 132h-21q-20 0-20 23v73h23v-72l2-6 5-3 7 3 3 6v72h22v-72zm-54 85L733 391v70l221-220h-70zm150-109h-7l-55 51v-51h-11v96h6l54-48v48h13v-96zm83 24q0-24-20-24h-42v97l42-1q20 0 20-21v-51zm75 57h-28v-28h19v-13h-19v-27h28v-13h-53v96h53v-15zm77 0h-30v-28h21v-13h-21v-40h-23v96h53v-15zm41-81h-24v96h24v-96zm96 0h-6l-54 51v-51h-11v96h6l52-48v48h13v-96zm77 81h-28v-28h19v-13h-19v-27h28v-13h-52v96h52v-15zm85-57q0-24-20-24h-42v97l41-1q21 0 21-21v-51zm52 85h-35l-852 853v35q0 15 6 31l911-913q-15-6-30-6zm71 36l-922 924q23 17 51 18l890-891q-2-28-19-51zm20 121l-820 818h69l751-748v-70zm-174-185h-9v-68h9l6 4 2 7v50l-2 5z"/><glyph glyph-name="uniEA03" unicode="" d="M1086 1313h-9v-68h9l6 3 2 6v50l-3 6zm451 0h-9v-68h9l6 3 2 6v50l-2 6zm0-1100h-9v-68h9l6 4 2 7v50l-2 5zm-451 0h-9v-68h9l6 4 2 7v50l-3 5zm634 1126H724q-48 0-80-32-33-34-33-78V232q0-47 33.5-81t79.5-34h996q45 0 79 34t34 81v997q0 45-34 78-31 32-79 32zm-100-123q39 0 64-25 27-27 27-62v-26l-117 113h26zm91-183v-70l-257 253h70zm-205 293h42q20 0 20-21v-51q0-11-5-17.5t-15-6.5h-42v96zm-75 0h52v-13h-28v-27h19v-13h-19v-28h28v-15h-52v96zm-96 0h6l52-48v48h13v-96h-6l-54 51v-51h-11v96zm49-110l327-323v-71l-397 394h70zm327-464v-73l-540 537h73l467-464zm0-143v-71l-680 678h69zm-425 717h24v-96h-24v96zm-70 2h53v-15h-30v-27h21v-13h-21v-41h-23v96zm-77-2h53v-13h-28v-27h19v-13h-19v-28h28v-15h-53v96zm-84 0h42q20 0 20-21v-51q0-11-5-17.5t-15-6.5h-42v96zm-94 0h6l54-48v48h13v-96h-7l-55 51v-51h-11v96zm-85 0h23v-72l2-6 5-2 7 2 3 6v72h22v-72q0-11-5.5-17.5T917 1230h-21q-20 0-20 23v73zm-143-302l782-783h-70L733 954v70zm0-141l641-642h-69L733 814v69zm0-210v70l502-502h-70zm361-432h-70L733 532v71zm-333 27q-22 22-26 52l77-78q-30 4-51 26zm177-112q0-11-5.5-17.5T917 132h-21q-20 0-20 23v73h23v-72l2-6 5-3 7 3 3 6v72h22v-72zm-54 85L733 391v70l221-220h-70zm150-109h-7l-55 51v-51h-11v96h6l54-48v48h13v-96zm83 24q0-24-20-24h-42v97l42-1q20 0 20-21v-51zm75 57h-28v-28h19v-13h-19v-27h28v-13h-53v96h53v-15zm77 0h-30v-28h21v-13h-21v-40h-23v96h53v-15zm41-81h-24v96h24v-96zm96 0h-6l-54 51v-51h-11v96h6l52-48v48h13v-96zm77 81h-28v-28h19v-13h-19v-27h28v-13h-52v96h52v-15zm85-57q0-24-20-24h-42v97l41-1q21 0 21-21v-51zm52 85h-35l-852 853v35q0 15 6 31l911-913q-15-6-30-6zm71 36l-922 924q23 17 51 18l890-891q-2-28-19-51zm20 121l-820 818h69l751-748v-70z"/><glyph glyph-name="uniEA04" unicode="" d="M1537 1313h-9v-68h9l6 3 2 6v50l-2 6zm183 26H724q-48 0-80-32-33-34-33-78V232q0-47 33.5-81t79.5-34h996q45 0 79 34t34 81v997q0 45-34 78-31 32-79 32zm-100-123q39 0 64-25 27-27 27-62v-26l-117 113h26zm91-183v-70l-257 253h70zm-205 293h42q20 0 20-21v-51q0-11-5-17.5t-15-6.5h-42v96zm-75 0h52v-13h-28v-27h19v-13h-19v-28h28v-15h-52v96zm-96 0h6l52-48v48h13v-96h-6l-54 51v-51h-11v96zm49-110l327-323v-71l-397 394h70zm327-464v-73l-540 537h73l467-464zm0-143v-71l-680 678h69zm-425 717h24v-96h-24v96zm-70 2h53v-15h-30v-27h21v-13h-21v-41h-23v96zm-77-2h53v-13h-28v-27h19v-13h-19v-28h28v-15h-53v96zm-84 0h42q20 0 20-21v-51q0-11-5-17.5t-15-6.5h-42v96zm-94 0h6l54-48v48h13v-96h-7l-55 51v-51h-11v96zm-85 0h23v-72l2-6 5-2 7 2 3 6v72h22v-72q0-11-5.5-17.5T917 1230h-21q-20 0-20 23v73zm-143-302l782-783h-70L733 954v70zm0-141l641-642h-69L733 814v69zm0-210v70l502-502h-70zm361-432h-70L733 532v71zm-333 27q-22 22-26 52l77-78q-30 4-51 26zm177-112q0-11-5.5-17.5T917 132h-21q-20 0-20 23v73h23v-72l2-6 5-3 7 3 3 6v72h22v-72zm-54 85L733 391v70l221-220h-70zm150-109h-7l-55 51v-51h-11v96h6l54-48v48h13v-96zm83 24q0-24-20-24h-42v97l42-1q20 0 20-21v-51zm75 57h-28v-28h19v-13h-19v-27h28v-13h-53v96h53v-15zm77 0h-30v-28h21v-13h-21v-40h-23v96h53v-15zm41-81h-24v96h24v-96zm96 0h-6l-54 51v-51h-11v96h6l52-48v48h13v-96zm77 81h-28v-28h19v-13h-19v-27h28v-13h-52v96h52v-15zm85-57q0-24-20-24h-42v97l41-1q21 0 21-21v-51zm52 85h-35l-852 853v35q0 15 6 31l911-913q-15-6-30-6zm71 36l-922 924q23 17 51 18l890-891q-2-28-19-51zm20 121l-820 818h69l751-748v-70zm-174-185h-9v-68h9l6 4 2 7v50l-2 5zm-451 0h-9v-68h9l6 4 2 7v50l-3 5zm0 1100h-9v-68h9l6 3 2 6v50l-3 6z"/><glyph glyph-name="uniEA05" unicode="" d="M1537 213h-9v-68h9l6 4 2 7v50l-2 5zm183 1126H724q-48 0-80-32-33-34-33-78V232q0-47 33.5-81t79.5-34h996q45 0 79 34t34 81v997q0 45-34 78-31 32-79 32zm-100-123q39 0 64-25 27-27 27-62v-26l-117 113h26zm91-183v-70l-257 253h70zm-205 293h42q20 0 20-21v-51q0-11-5-17.5t-15-6.5h-42v96zm-75 0h52v-13h-28v-27h19v-13h-19v-28h28v-15h-52v96zm-96 0h6l52-48v48h13v-96h-6l-54 51v-51h-11v96zm49-110l327-323v-71l-397 394h70zm327-464v-73l-540 537h73l467-464zm0-143v-71l-680 678h69zm-425 717h24v-96h-24v96zm-70 2h53v-15h-30v-27h21v-13h-21v-41h-23v96zm-77-2h53v-13h-28v-27h19v-13h-19v-28h28v-15h-53v96zm-84 0h42q20 0 20-21v-51q0-11-5-17.5t-15-6.5h-42v96zm-94 0h6l54-48v48h13v-96h-7l-55 51v-51h-11v96zm-85 0h23v-72l2-6 5-2 7 2 3 6v72h22v-72q0-11-5.5-17.5T917 1230h-21q-20 0-20 23v73zm-143-302l782-783h-70L733 954v70zm0-141l641-642h-69L733 814v69zm0-210v70l502-502h-70zm361-432h-70L733 532v71zm-333 27q-22 22-26 52l77-78q-30 4-51 26zm177-112q0-11-5.5-17.5T917 132h-21q-20 0-20 23v73h23v-72l2-6 5-3 7 3 3 6v72h22v-72zm-54 85L733 391v70l221-220h-70zm150-109h-7l-55 51v-51h-11v96h6l54-48v48h13v-96zm83 24q0-24-20-24h-42v97l42-1q20 0 20-21v-51zm75 57h-28v-28h19v-13h-19v-27h28v-13h-53v96h53v-15zm77 0h-30v-28h21v-13h-21v-40h-23v96h53v-15zm41-81h-24v96h24v-96zm96 0h-6l-54 51v-51h-11v96h6l52-48v48h13v-96zm77 81h-28v-28h19v-13h-19v-27h28v-13h-52v96h52v-15zm85-57q0-24-20-24h-42v97l41-1q21 0 21-21v-51zm52 85h-35l-852 853v35q0 15 6 31l911-913q-15-6-30-6zm71 36l-922 924q23 17 51 18l890-891q-2-28-19-51zm20 121l-820 818h69l751-748v-70zm-625-185h-9v-68h9l6 4 2 7v50l-3 5zm0 1100h-9v-68h9l6 3 2 6v50l-3 6zm451 0h-9v-68h9l6 3 2 6v50l-2 6z"/><glyph glyph-name="uniEA06" unicode="" d="M1799 1307q-31 32-79 32H724q-48 0-80-32-33-34-33-78V232q0-47 33.5-81t79.5-34h996q45 0 79 34t34 81v997q0 45-34 78zm-179-91q39 0 64-25 27-27 27-62v-26l-117 113h26zm91-183v-70l-257 253h70zm-205 293h42q20 0 20-21v-51q0-11-5-17.5t-15-6.5h-42v96zm-75 0h52v-13h-28v-27h19v-13h-19v-28h28v-15h-52v96zm-96 0h6l52-48v48h13v-96h-6l-54 51v-51h-11v96zm49-110l327-323v-71l-397 394h70zm327-464v-73l-540 537h73l467-464zm0-143v-71l-680 678h69zm-425 717h24v-96h-24v96zm-70 2h53v-15h-30v-27h21v-13h-21v-41h-23v96zm-77-2h53v-13h-28v-27h19v-13h-19v-28h28v-15h-53v96zm-84 0h42q20 0 20-21v-51q0-11-5-17.5t-15-6.5h-42v96zm-94 0h6l54-48v48h13v-96h-7l-55 51v-51h-11v96zm-85 0h23v-72l2-6 5-2 7 2 3 6v72h22v-72q0-11-5.5-17.5T917 1230h-21q-20 0-20 23v73zm-143-302l782-783h-70L733 954v70zm0-141l641-642h-69L733 814v69zm0-210v70l502-502h-70zm361-432h-70L733 532v71zm-333 27q-22 22-26 52l77-78q-30 4-51 26zm177-112q0-11-5.5-17.5T917 132h-21q-20 0-20 23v73h23v-72l2-6 5-3 7 3 3 6v72h22v-72zm-54 85L733 391v70l221-220h-70zm150-109h-7l-55 51v-51h-11v96h6l54-48v48h13v-96zm83 24q0-24-20-24h-42v97l42-1q20 0 20-21v-51zm75 57h-28v-28h19v-13h-19v-27h28v-13h-53v96h53v-15zm77 0h-30v-28h21v-13h-21v-40h-23v96h53v-15zm41-81h-24v96h24v-96zm96 0h-6l-54 51v-51h-11v96h6l52-48v48h13v-96zm77 81h-28v-28h19v-13h-19v-27h28v-13h-52v96h52v-15zm85-57q0-24-20-24h-42v97l41-1q21 0 21-21v-51zm52 85h-35l-852 853v35q0 15 6 31l911-913q-15-6-30-6zm71 36l-922 924q23 17 51 18l890-891q-2-28-19-51zm20 121l-820 818h69l751-748v-70zm-174 915h-9v-68h9l6 3 2 6v50l-2 6zm0-1100h-9v-68h9l6 4 2 7v50l-2 5zm-451 0h-9v-68h9l6 4 2 7v50l-3 5zm0 1100h-9v-68h9l6 3 2 6v50l-3 6z"/><glyph glyph-name="uniEA07" unicode="" d="M1086 213h-9v-68h9l6 4 2 7v50l-3 5zm451 0h-9v-68h9l6 4 2 7v50l-2 5zm183-96q45 0 79 34t34 81v997q0 45-34 78-31 32-79 32H724q-48 0-80-32-33-34-33-78V232q0-47 33.5-81t79.5-34h996zM761 268q-22 22-26 52l77-78q-30 4-51 26zm177-112q0-11-5.5-17.5T917 132h-21q-20 0-20 23v73h23v-72l2-6 5-3 7 3 3 6v72h22v-72zm-54 85L733 391v70l221-220h-70zm210 0h-70L733 532v71zM733 673v70l502-502h-70zm301-541h-7l-55 51v-51h-11v96h6l54-48v48h13v-96zm83 24q0-24-20-24h-42v97l42-1q20 0 20-21v-51zm75 57h-28v-28h19v-13h-19v-27h28v-13h-53v96h53v-15zm77 0h-30v-28h21v-13h-21v-40h-23v96h53v-15zm41-81h-24v96h24v-96zm96 0h-6l-54 51v-51h-11v96h6l52-48v48h13v-96zm77 81h-28v-28h19v-13h-19v-27h28v-13h-52v96h52v-15zm85-57q0-24-20-24h-42v97l41-1q21 0 21-21v-51zm52 1060q39 0 64-25 27-27 27-62v-26l-117 113h26zm91-183v-70l-257 253h70zm-205 293h42q20 0 20-21v-51q0-11-5-17.5t-15-6.5h-42v96zm-75 0h52v-13h-28v-27h19v-13h-19v-28h28v-15h-52v96zm-96 0h6l52-48v48h13v-96h-6l-54 51v-51h-11v96zm49-110l327-323v-71l-397 394h70zm327-464v-73l-540 537h73l467-464zm0-143v-71l-680 678h69zm-425 717h24v-96h-24v96zm-70 2h53v-15h-30v-27h21v-13h-21v-41h-23v96zm-77-2h53v-13h-28v-27h19v-13h-19v-28h28v-15h-53v96zm-84 0h42q20 0 20-21v-51q0-11-5-17.5t-15-6.5h-42v96zm-94 0h6l54-48v48h13v-96h-7l-55 51v-51h-11v96zm750-858v-70l-820 818h69zm-835 858h23v-72l2-6 5-2 7 2 3 6v72h22v-72q0-11-5.5-17.5T917 1230h-21q-20 0-20 23v73zm-56-107l890-891q-2-28-19-51l-922 924q23 17 51 18zm-87-90q0 15 6 31l911-913q-15-6-30-6h-35l-852 853v35zm0-105l782-783h-70L733 954v70zm0-141l641-642h-69L733 814v69zm353 430h-9v-68h9l6 3 2 6v50l-3 6zm451 0h-9v-68h9l6 3 2 6v50l-2 6z"/><glyph glyph-name="uniEA08" unicode="" d="M1086 213h-9v-68h9l6 4 2 7v50l-3 5zM724 1339q-48 0-80-32-33-34-33-78V232q0-47 33.5-81t79.5-34h996q45 0 79 34t34 81v997q0 45-34 78-31 32-79 32H724zm896-123q39 0 64-25 27-27 27-62v-26l-117 113h26zm91-183v-70l-257 253h70zm-205 293h42q20 0 20-21v-51q0-11-5-17.5t-15-6.5h-42v96zm-75 0h52v-13h-28v-27h19v-13h-19v-28h28v-15h-52v96zm-96 0h6l52-48v48h13v-96h-6l-54 51v-51h-11v96zm49-110l327-323v-71l-397 394h70zm327-464v-73l-540 537h73l467-464zm0-143v-71l-680 678h69zm-425 717h24v-96h-24v96zm-70 2h53v-15h-30v-27h21v-13h-21v-41h-23v96zm-77-2h53v-13h-28v-27h19v-13h-19v-28h28v-15h-53v96zm-84 0h42q20 0 20-21v-51q0-11-5-17.5t-15-6.5h-42v96zm-94 0h6l54-48v48h13v-96h-7l-55 51v-51h-11v96zm-85 0h23v-72l2-6 5-2 7 2 3 6v72h22v-72q0-11-5.5-17.5T917 1230h-21q-20 0-20 23v73zm-143-302l782-783h-70L733 954v70zm0-141l641-642h-69L733 814v69zm0-210v70l502-502h-70zm361-432h-70L733 532v71zm-333 27q-22 22-26 52l77-78q-30 4-51 26zm177-112q0-11-5.5-17.5T917 132h-21q-20 0-20 23v73h23v-72l2-6 5-3 7 3 3 6v72h22v-72zm-54 85L733 391v70l221-220h-70zm150-109h-7l-55 51v-51h-11v96h6l54-48v48h13v-96zm83 24q0-24-20-24h-42v97l42-1q20 0 20-21v-51zm75 57h-28v-28h19v-13h-19v-27h28v-13h-53v96h53v-15zm77 0h-30v-28h21v-13h-21v-40h-23v96h53v-15zm41-81h-24v96h24v-96zm96 0h-6l-54 51v-51h-11v96h6l52-48v48h13v-96zm77 81h-28v-28h19v-13h-19v-27h28v-13h-52v96h52v-15zm85-57q0-24-20-24h-42v97l41-1q21 0 21-21v-51zm52 85h-35l-852 853v35q0 15 6 31l911-913q-15-6-30-6zm71 36l-922 924q23 17 51 18l890-891q-2-28-19-51zm20 121l-820 818h69l751-748v-70zm-174-185h-9v-68h9l6 4 2 7v50l-2 5zm0 1100h-9v-68h9l6 3 2 6v50l-2 6zm-451 0h-9v-68h9l6 3 2 6v50l-3 6z"/><glyph glyph-name="uniEA09" unicode="" d="M1537 213h-9v-68h9l6 4 2 7v50l-2 5zm0 1100h-9v-68h9l6 3 2 6v50l-2 6zm183-1196q45 0 79 34t34 81v997q0 45-34 78-31 32-79 32H724q-48 0-80-32-33-34-33-78V232q0-47 33.5-81t79.5-34h996zM761 268q-22 22-26 52l77-78q-30 4-51 26zm177-112q0-11-5.5-17.5T917 132h-21q-20 0-20 23v73h23v-72l2-6 5-3 7 3 3 6v72h22v-72zm-54 85L733 391v70l221-220h-70zm210 0h-70L733 532v71zM733 673v70l502-502h-70zm301-541h-7l-55 51v-51h-11v96h6l54-48v48h13v-96zm83 24q0-24-20-24h-42v97l42-1q20 0 20-21v-51zm75 57h-28v-28h19v-13h-19v-27h28v-13h-53v96h53v-15zm77 0h-30v-28h21v-13h-21v-40h-23v96h53v-15zm41-81h-24v96h24v-96zm96 0h-6l-54 51v-51h-11v96h6l52-48v48h13v-96zm77 81h-28v-28h19v-13h-19v-27h28v-13h-52v96h52v-15zm85-57q0-24-20-24h-42v97l41-1q21 0 21-21v-51zm52 1060q39 0 64-25 27-27 27-62v-26l-117 113h26zm91-183v-70l-257 253h70zm-205 293h42q20 0 20-21v-51q0-11-5-17.5t-15-6.5h-42v96zm-75 0h52v-13h-28v-27h19v-13h-19v-28h28v-15h-52v96zm-96 0h6l52-48v48h13v-96h-6l-54 51v-51h-11v96zm49-110l327-323v-71l-397 394h70zm327-464v-73l-540 537h73l467-464zm0-143v-71l-680 678h69zm-425 717h24v-96h-24v96zm-70 2h53v-15h-30v-27h21v-13h-21v-41h-23v96zm-77-2h53v-13h-28v-27h19v-13h-19v-28h28v-15h-53v96zm-84 0h42q20 0 20-21v-51q0-11-5-17.5t-15-6.5h-42v96zm-94 0h6l54-48v48h13v-96h-7l-55 51v-51h-11v96zm750-858v-70l-820 818h69zm-835 858h23v-72l2-6 5-2 7 2 3 6v72h22v-72q0-11-5.5-17.5T917 1230h-21q-20 0-20 23v73zm-56-107l890-891q-2-28-19-51l-922 924q23 17 51 18zm-87-90q0 15 6 31l911-913q-15-6-30-6h-35l-852 853v35zm0-105l782-783h-70L733 954v70zm0-141l641-642h-69L733 814v69zm353-670h-9v-68h9l6 4 2 7v50l-3 5zm0 1100h-9v-68h9l6 3 2 6v50l-3 6z"/><glyph glyph-name="uniEA0A" unicode="" d="M1086 213h-9v-68h9l6 4 2 7v50l-3 5zm634 1126H724q-48 0-80-32-33-34-33-78V232q0-47 33.5-81t79.5-34h996q45 0 79 34t34 81v997q0 45-34 78-31 32-79 32zm-100-123q39 0 64-25 27-27 27-62v-26l-117 113h26zm91-183v-70l-257 253h70zm-205 293h42q20 0 20-21v-51q0-11-5-17.5t-15-6.5h-42v96zm-75 0h52v-13h-28v-27h19v-13h-19v-28h28v-15h-52v96zm-96 0h6l52-48v48h13v-96h-6l-54 51v-51h-11v96zm49-110l327-323v-71l-397 394h70zm327-464v-73l-540 537h73l467-464zm0-143v-71l-680 678h69zm-425 717h24v-96h-24v96zm-70 2h53v-15h-30v-27h21v-13h-21v-41h-23v96zm-77-2h53v-13h-28v-27h19v-13h-19v-28h28v-15h-53v96zm-84 0h42q20 0 20-21v-51q0-11-5-17.5t-15-6.5h-42v96zm-94 0h6l54-48v48h13v-96h-7l-55 51v-51h-11v96zm-85 0h23v-72l2-6 5-2 7 2 3 6v72h22v-72q0-11-5.5-17.5T917 1230h-21q-20 0-20 23v73zm-143-302l782-783h-70L733 954v70zm0-141l641-642h-69L733 814v69zm0-210v70l502-502h-70zm361-432h-70L733 532v71zm-333 27q-22 22-26 52l77-78q-30 4-51 26zm177-112q0-11-5.5-17.5T917 132h-21q-20 0-20 23v73h23v-72l2-6 5-3 7 3 3 6v72h22v-72zm-54 85L733 391v70l221-220h-70zm150-109h-7l-55 51v-51h-11v96h6l54-48v48h13v-96zm83 24q0-24-20-24h-42v97l42-1q20 0 20-21v-51zm75 57h-28v-28h19v-13h-19v-27h28v-13h-53v96h53v-15zm77 0h-30v-28h21v-13h-21v-40h-23v96h53v-15zm41-81h-24v96h24v-96zm96 0h-6l-54 51v-51h-11v96h6l52-48v48h13v-96zm77 81h-28v-28h19v-13h-19v-27h28v-13h-52v96h52v-15zm85-57q0-24-20-24h-42v97l41-1q21 0 21-21v-51zm52 85h-35l-852 853v35q0 15 6 31l911-913q-15-6-30-6zm71 36l-922 924q23 17 51 18l890-891q-2-28-19-51zm20 121l-820 818h69l751-748v-70zm-625 915h-9v-68h9l6 3 2 6v50l-3 6zm451 0h-9v-68h9l6 3 2 6v50l-2 6zm0-1100h-9v-68h9l6 4 2 7v50l-2 5z"/><glyph glyph-name="uniEA0B" unicode="" d="M1086 1313h-9v-68h9l6 3 2 6v50l-3 6zm451 0h-9v-68h9l6 3 2 6v50l-2 6zm0-1100h-9v-68h9l6 4 2 7v50l-2 5zm183 1126H724q-48 0-80-32-33-34-33-78V232q0-47 33.5-81t79.5-34h996q45 0 79 34t34 81v997q0 45-34 78-31 32-79 32zm-100-123q39 0 64-25 27-27 27-62v-26l-117 113h26zm91-183v-70l-257 253h70zm-205 293h42q20 0 20-21v-51q0-11-5-17.5t-15-6.5h-42v96zm-75 0h52v-13h-28v-27h19v-13h-19v-28h28v-15h-52v96zm-96 0h6l52-48v48h13v-96h-6l-54 51v-51h-11v96zm49-110l327-323v-71l-397 394h70zm327-464v-73l-540 537h73l467-464zm0-143v-71l-680 678h69zm-425 717h24v-96h-24v96zm-70 2h53v-15h-30v-27h21v-13h-21v-41h-23v96zm-77-2h53v-13h-28v-27h19v-13h-19v-28h28v-15h-53v96zm-84 0h42q20 0 20-21v-51q0-11-5-17.5t-15-6.5h-42v96zm-94 0h6l54-48v48h13v-96h-7l-55 51v-51h-11v96zm-85 0h23v-72l2-6 5-2 7 2 3 6v72h22v-72q0-11-5.5-17.5T917 1230h-21q-20 0-20 23v73zm-143-302l782-783h-70L733 954v70zm0-141l641-642h-69L733 814v69zm0-210v70l502-502h-70zm361-432h-70L733 532v71zm-333 27q-22 22-26 52l77-78q-30 4-51 26zm177-112q0-11-5.5-17.5T917 132h-21q-20 0-20 23v73h23v-72l2-6 5-3 7 3 3 6v72h22v-72zm-54 85L733 391v70l221-220h-70zm150-109h-7l-55 51v-51h-11v96h6l54-48v48h13v-96zm83 24q0-24-20-24h-42v97l42-1q20 0 20-21v-51zm75 57h-28v-28h19v-13h-19v-27h28v-13h-53v96h53v-15zm77 0h-30v-28h21v-13h-21v-40h-23v96h53v-15zm41-81h-24v96h24v-96zm96 0h-6l-54 51v-51h-11v96h6l52-48v48h13v-96zm77 81h-28v-28h19v-13h-19v-27h28v-13h-52v96h52v-15zm85-57q0-24-20-24h-42v97l41-1q21 0 21-21v-51zm52 85h-35l-852 853v35q0 15 6 31l911-913q-15-6-30-6zm71 36l-922 924q23 17 51 18l890-891q-2-28-19-51zm20 121l-820 818h69l751-748v-70zm-625-185h-9v-68h9l6 4 2 7v50l-3 5z"/><glyph glyph-name="uniEA0C" unicode="" d="M1086 213h-9v-68h9l6 4 2 7v50l-3 5zm451 0h-9v-68h9l6 4 2 7v50l-2 5zm-451 1100h-9v-68h9l6 3 2 6v50l-3 6zm451 0h-9v-68h9l6 3 2 6v50l-2 6zm183 26H724q-48 0-80-32-33-34-33-78V232q0-47 33.5-81t79.5-34h996q45 0 79 34t34 81v997q0 45-34 78-31 32-79 32zm-100-123q39 0 64-25 27-27 27-62v-26l-117 113h26zm91-183v-70l-257 253h70zm-205 293h42q20 0 20-21v-51q0-11-5-17.5t-15-6.5h-42v96zm-75 0h52v-13h-28v-27h19v-13h-19v-28h28v-15h-52v96zm-96 0h6l52-48v48h13v-96h-6l-54 51v-51h-11v96zm49-110l327-323v-71l-397 394h70zm327-464v-73l-540 537h73l467-464zm0-143v-71l-680 678h69zm-425 717h24v-96h-24v96zm-70 2h53v-15h-30v-27h21v-13h-21v-41h-23v96zm-77-2h53v-13h-28v-27h19v-13h-19v-28h28v-15h-53v96zm-84 0h42q20 0 20-21v-51q0-11-5-17.5t-15-6.5h-42v96zm-94 0h6l54-48v48h13v-96h-7l-55 51v-51h-11v96zm-85 0h23v-72l2-6 5-2 7 2 3 6v72h22v-72q0-11-5.5-17.5T917 1230h-21q-20 0-20 23v73zm-143-302l782-783h-70L733 954v70zm0-141l641-642h-69L733 814v69zm0-210v70l502-502h-70zm361-432h-70L733 532v71zm-333 27q-22 22-26 52l77-78q-30 4-51 26zm177-112q0-11-5.5-17.5T917 132h-21q-20 0-20 23v73h23v-72l2-6 5-3 7 3 3 6v72h22v-72zm-54 85L733 391v70l221-220h-70zm150-109h-7l-55 51v-51h-11v96h6l54-48v48h13v-96zm83 24q0-24-20-24h-42v97l42-1q20 0 20-21v-51zm75 57h-28v-28h19v-13h-19v-27h28v-13h-53v96h53v-15zm77 0h-30v-28h21v-13h-21v-40h-23v96h53v-15zm41-81h-24v96h24v-96zm96 0h-6l-54 51v-51h-11v96h6l52-48v48h13v-96zm77 81h-28v-28h19v-13h-19v-27h28v-13h-52v96h52v-15zm85-57q0-24-20-24h-42v97l41-1q21 0 21-21v-51zm52 85h-35l-852 853v35q0 15 6 31l911-913q-15-6-30-6zm71 36l-922 924q23 17 51 18l890-891q-2-28-19-51zm20 121l-820 818h69l751-748v-70z"/><glyph glyph-name="uniEA0D" unicode="" d="M1086 213h-9v-68h9l6 4 2 7v50l-3 5zm451 0h-9v-68h9l6 4 2 7v50l-2 5zm183 1126H724q-48 0-80-32-33-34-33-78V232q0-47 33.5-81t79.5-34h996q45 0 79 34t34 81v997q0 45-34 78-31 32-79 32zm-100-123q39 0 64-25 27-27 27-62v-26l-117 113h26zm91-183v-70l-257 253h70zm-205 293h42q20 0 20-21v-51q0-11-5-17.5t-15-6.5h-42v96zm-75 0h52v-13h-28v-27h19v-13h-19v-28h28v-15h-52v96zm-96 0h6l52-48v48h13v-96h-6l-54 51v-51h-11v96zm49-110l327-323v-71l-397 394h70zm327-464v-73l-540 537h73l467-464zm0-143v-71l-680 678h69zm-425 717h24v-96h-24v96zm-70 2h53v-15h-30v-27h21v-13h-21v-41h-23v96zm-77-2h53v-13h-28v-27h19v-13h-19v-28h28v-15h-53v96zm-84 0h42q20 0 20-21v-51q0-11-5-17.5t-15-6.5h-42v96zm-94 0h6l54-48v48h13v-96h-7l-55 51v-51h-11v96zm-85 0h23v-72l2-6 5-2 7 2 3 6v72h22v-72q0-11-5.5-17.5T917 1230h-21q-20 0-20 23v73zm-143-302l782-783h-70L733 954v70zm0-141l641-642h-69L733 814v69zm0-210v70l502-502h-70zm361-432h-70L733 532v71zm-333 27q-22 22-26 52l77-78q-30 4-51 26zm177-112q0-11-5.5-17.5T917 132h-21q-20 0-20 23v73h23v-72l2-6 5-3 7 3 3 6v72h22v-72zm-54 85L733 391v70l221-220h-70zm150-109h-7l-55 51v-51h-11v96h6l54-48v48h13v-96zm83 24q0-24-20-24h-42v97l42-1q20 0 20-21v-51zm75 57h-28v-28h19v-13h-19v-27h28v-13h-53v96h53v-15zm77 0h-30v-28h21v-13h-21v-40h-23v96h53v-15zm41-81h-24v96h24v-96zm96 0h-6l-54 51v-51h-11v96h6l52-48v48h13v-96zm77 81h-28v-28h19v-13h-19v-27h28v-13h-52v96h52v-15zm85-57q0-24-20-24h-42v97l41-1q21 0 21-21v-51zm52 85h-35l-852 853v35q0 15 6 31l911-913q-15-6-30-6zm71 36l-922 924q23 17 51 18l890-891q-2-28-19-51zm20 121l-820 818h69l751-748v-70zm-625 915h-9v-68h9l6 3 2 6v50l-3 6zm451 0h-9v-68h9l6 3 2 6v50l-2 6z"/><glyph glyph-name="uniEA0E" unicode="" d="M1537 1313h-9v-68h9l6 3 2 6v50l-2 6zM1086 213h-9v-68h9l6 4 2 7v50l-3 5zm451 0h-9v-68h9l6 4 2 7v50l-2 5zm-451 1100h-9v-68h9l6 3 2 6v50l-3 6zm634 26H724q-48 0-80-32-33-34-33-78V232q0-47 33.5-81t79.5-34h996q45 0 79 34t34 81v997q0 45-34 78-31 32-79 32zm-100-123q39 0 64-25 27-27 27-62v-26l-117 113h26zm91-183v-70l-257 253h70zm-205 293h42q20 0 20-21v-51q0-11-5-17.5t-15-6.5h-42v96zm-75 0h52v-13h-28v-27h19v-13h-19v-28h28v-15h-52v96zm-96 0h6l52-48v48h13v-96h-6l-54 51v-51h-11v96zm49-110l327-323v-71l-397 394h70zm327-464v-73l-540 537h73l467-464zm0-143v-71l-680 678h69zm-425 717h24v-96h-24v96zm-70 2h53v-15h-30v-27h21v-13h-21v-41h-23v96zm-77-2h53v-13h-28v-27h19v-13h-19v-28h28v-15h-53v96zm-84 0h42q20 0 20-21v-51q0-11-5-17.5t-15-6.5h-42v96zm-94 0h6l54-48v48h13v-96h-7l-55 51v-51h-11v96zm-85 0h23v-72l2-6 5-2 7 2 3 6v72h22v-72q0-11-5.5-17.5T917 1230h-21q-20 0-20 23v73zm-143-302l782-783h-70L733 954v70zm0-141l641-642h-69L733 814v69zm0-210v70l502-502h-70zm361-432h-70L733 532v71zm-333 27q-22 22-26 52l77-78q-30 4-51 26zm177-112q0-11-5.5-17.5T917 132h-21q-20 0-20 23v73h23v-72l2-6 5-3 7 3 3 6v72h22v-72zm-54 85L733 391v70l221-220h-70zm150-109h-7l-55 51v-51h-11v96h6l54-48v48h13v-96zm83 24q0-24-20-24h-42v97l42-1q20 0 20-21v-51zm75 57h-28v-28h19v-13h-19v-27h28v-13h-53v96h53v-15zm77 0h-30v-28h21v-13h-21v-40h-23v96h53v-15zm41-81h-24v96h24v-96zm96 0h-6l-54 51v-51h-11v96h6l52-48v48h13v-96zm77 81h-28v-28h19v-13h-19v-27h28v-13h-52v96h52v-15zm85-57q0-24-20-24h-42v97l41-1q21 0 21-21v-51zm52 85h-35l-852 853v35q0 15 6 31l911-913q-15-6-30-6zm71 36l-922 924q23 17 51 18l890-891q-2-28-19-51zm20 121l-820 818h69l751-748v-70z"/><glyph glyph-name="uniEA0F" unicode="" d="M1086 1313h-9v-68h9l6 3 2 6v50l-3 6zm451-1100h-9v-68h9l6 4 2 7v50l-2 5zm-451 0h-9v-68h9l6 4 2 7v50l-3 5zm634 1126H724q-48 0-80-32-33-34-33-78V232q0-47 33.5-81t79.5-34h996q45 0 79 34t34 81v997q0 45-34 78-31 32-79 32zm-100-123q39 0 64-25 27-27 27-62v-26l-117 113h26zm91-183v-70l-257 253h70zm-205 293h42q20 0 20-21v-51q0-11-5-17.5t-15-6.5h-42v96zm-75 0h52v-13h-28v-27h19v-13h-19v-28h28v-15h-52v96zm-96 0h6l52-48v48h13v-96h-6l-54 51v-51h-11v96zm49-110l327-323v-71l-397 394h70zm327-464v-73l-540 537h73l467-464zm0-143v-71l-680 678h69zm-425 717h24v-96h-24v96zm-70 2h53v-15h-30v-27h21v-13h-21v-41h-23v96zm-77-2h53v-13h-28v-27h19v-13h-19v-28h28v-15h-53v96zm-84 0h42q20 0 20-21v-51q0-11-5-17.5t-15-6.5h-42v96zm-94 0h6l54-48v48h13v-96h-7l-55 51v-51h-11v96zm-85 0h23v-72l2-6 5-2 7 2 3 6v72h22v-72q0-11-5.5-17.5T917 1230h-21q-20 0-20 23v73zm-143-302l782-783h-70L733 954v70zm0-141l641-642h-69L733 814v69zm0-210v70l502-502h-70zm361-432h-70L733 532v71zm-333 27q-22 22-26 52l77-78q-30 4-51 26zm177-112q0-11-5.5-17.5T917 132h-21q-20 0-20 23v73h23v-72l2-6 5-3 7 3 3 6v72h22v-72zm-54 85L733 391v70l221-220h-70zm150-109h-7l-55 51v-51h-11v96h6l54-48v48h13v-96zm83 24q0-24-20-24h-42v97l42-1q20 0 20-21v-51zm75 57h-28v-28h19v-13h-19v-27h28v-13h-53v96h53v-15zm77 0h-30v-28h21v-13h-21v-40h-23v96h53v-15zm41-81h-24v96h24v-96zm96 0h-6l-54 51v-51h-11v96h6l52-48v48h13v-96zm77 81h-28v-28h19v-13h-19v-27h28v-13h-52v96h52v-15zm85-57q0-24-20-24h-42v97l41-1q21 0 21-21v-51zm52 85h-35l-852 853v35q0 15 6 31l911-913q-15-6-30-6zm71 36l-922 924q23 17 51 18l890-891q-2-28-19-51zm20 121l-820 818h69l751-748v-70zm-174 915h-9v-68h9l6 3 2 6v50l-2 6z"/><glyph glyph-name="uniEA10" unicode="" d="M1537 1313h-9v-68h9l6 3 2 6v50l-2 6zM1086 213h-9v-68h9l6 4 2 7v50l-3 5zm0 1100h-9v-68h9l6 3 2 6v50l-3 6zm451-1100h-9v-68h9l6 4 2 7v50l-2 5zm183 1126H724q-48 0-80-32-33-34-33-78V232q0-47 33.5-81t79.5-34h996q45 0 79 34t34 81v997q0 45-34 78-31 32-79 32zm-100-123q39 0 64-25 27-27 27-62v-26l-117 113h26zm91-183v-70l-257 253h70zm-205 293h42q20 0 20-21v-51q0-11-5-17.5t-15-6.5h-42v96zm-75 0h52v-13h-28v-27h19v-13h-19v-28h28v-15h-52v96zm-96 0h6l52-48v48h13v-96h-6l-54 51v-51h-11v96zm49-110l327-323v-71l-397 394h70zm327-464v-73l-540 537h73l467-464zm0-143v-71l-680 678h69zm-425 717h24v-96h-24v96zm-70 2h53v-15h-30v-27h21v-13h-21v-41h-23v96zm-77-2h53v-13h-28v-27h19v-13h-19v-28h28v-15h-53v96zm-84 0h42q20 0 20-21v-51q0-11-5-17.5t-15-6.5h-42v96zm-94 0h6l54-48v48h13v-96h-7l-55 51v-51h-11v96zm-85 0h23v-72l2-6 5-2 7 2 3 6v72h22v-72q0-11-5.5-17.5T917 1230h-21q-20 0-20 23v73zm-143-302l782-783h-70L733 954v70zm0-141l641-642h-69L733 814v69zm0-210v70l502-502h-70zm361-432h-70L733 532v71zm-333 27q-22 22-26 52l77-78q-30 4-51 26zm177-112q0-11-5.5-17.5T917 132h-21q-20 0-20 23v73h23v-72l2-6 5-3 7 3 3 6v72h22v-72zm-54 85L733 391v70l221-220h-70zm150-109h-7l-55 51v-51h-11v96h6l54-48v48h13v-96zm83 24q0-24-20-24h-42v97l42-1q20 0 20-21v-51zm75 57h-28v-28h19v-13h-19v-27h28v-13h-53v96h53v-15zm77 0h-30v-28h21v-13h-21v-40h-23v96h53v-15zm41-81h-24v96h24v-96zm96 0h-6l-54 51v-51h-11v96h6l52-48v48h13v-96zm77 81h-28v-28h19v-13h-19v-27h28v-13h-52v96h52v-15zm85-57q0-24-20-24h-42v97l41-1q21 0 21-21v-51zm52 85h-35l-852 853v35q0 15 6 31l911-913q-15-6-30-6zm71 36l-922 924q23 17 51 18l890-891q-2-28-19-51zm20 121l-820 818h69l751-748v-70z"/><glyph glyph-name="uniEA11" unicode="" d="M1537 213h-9v-68h9l6 4 2 7v50l-2 5zm183 1126H724q-48 0-80-32-33-34-33-78V232q0-47 33.5-81t79.5-34h996q45 0 79 34t34 81v997q0 45-34 78-31 32-79 32zm-100-123q39 0 64-25 27-27 27-62v-26l-117 113h26zm91-183v-70l-257 253h70zm-205 293h42q20 0 20-21v-51q0-11-5-17.5t-15-6.5h-42v96zm-75 0h52v-13h-28v-27h19v-13h-19v-28h28v-15h-52v96zm-96 0h6l52-48v48h13v-96h-6l-54 51v-51h-11v96zm49-110l327-323v-71l-397 394h70zm327-464v-73l-540 537h73l467-464zm0-143v-71l-680 678h69zm-425 717h24v-96h-24v96zm-70 2h53v-15h-30v-27h21v-13h-21v-41h-23v96zm-77-2h53v-13h-28v-27h19v-13h-19v-28h28v-15h-53v96zm-84 0h42q20 0 20-21v-51q0-11-5-17.5t-15-6.5h-42v96zm-94 0h6l54-48v48h13v-96h-7l-55 51v-51h-11v96zm-85 0h23v-72l2-6 5-2 7 2 3 6v72h22v-72q0-11-5.5-17.5T917 1230h-21q-20 0-20 23v73zm-143-302l782-783h-70L733 954v70zm0-141l641-642h-69L733 814v69zm0-210v70l502-502h-70zm361-432h-70L733 532v71zm-333 27q-22 22-26 52l77-78q-30 4-51 26zm177-112q0-11-5.5-17.5T917 132h-21q-20 0-20 23v73h23v-72l2-6 5-3 7 3 3 6v72h22v-72zm-54 85L733 391v70l221-220h-70zm150-109h-7l-55 51v-51h-11v96h6l54-48v48h13v-96zm83 24q0-24-20-24h-42v97l42-1q20 0 20-21v-51zm75 57h-28v-28h19v-13h-19v-27h28v-13h-53v96h53v-15zm77 0h-30v-28h21v-13h-21v-40h-23v96h53v-15zm41-81h-24v96h24v-96zm96 0h-6l-54 51v-51h-11v96h6l52-48v48h13v-96zm77 81h-28v-28h19v-13h-19v-27h28v-13h-52v96h52v-15zm85-57q0-24-20-24h-42v97l41-1q21 0 21-21v-51zm52 85h-35l-852 853v35q0 15 6 31l911-913q-15-6-30-6zm71 36l-922 924q23 17 51 18l890-891q-2-28-19-51zm20 121l-820 818h69l751-748v-70zm-625 915h-9v-68h9l6 3 2 6v50l-3 6zm0-1100h-9v-68h9l6 4 2 7v50l-3 5zm451 1100h-9v-68h9l6 3 2 6v50l-2 6z"/><glyph glyph-name="uniEA12" unicode="" d="M1537 1313h-9v-68h9l6 3 2 6v50l-2 6zm-451 0h-9v-68h9l6 3 2 6v50l-3 6zm451-1100h-9v-68h9l6 4 2 7v50l-2 5zm-451 0h-9v-68h9l6 4 2 7v50l-3 5zm634 1126H724q-48 0-80-32-33-34-33-78V232q0-47 33.5-81t79.5-34h996q45 0 79 34t34 81v997q0 45-34 78-31 32-79 32zm-100-123q39 0 64-25 27-27 27-62v-26l-117 113h26zm91-183v-70l-257 253h70zm-205 293h42q20 0 20-21v-51q0-11-5-17.5t-15-6.5h-42v96zm-75 0h52v-13h-28v-27h19v-13h-19v-28h28v-15h-52v96zm-96 0h6l52-48v48h13v-96h-6l-54 51v-51h-11v96zm49-110l327-323v-71l-397 394h70zm327-464v-73l-540 537h73l467-464zm0-143v-71l-680 678h69zm-425 717h24v-96h-24v96zm-70 2h53v-15h-30v-27h21v-13h-21v-41h-23v96zm-77-2h53v-13h-28v-27h19v-13h-19v-28h28v-15h-53v96zm-84 0h42q20 0 20-21v-51q0-11-5-17.5t-15-6.5h-42v96zm-94 0h6l54-48v48h13v-96h-7l-55 51v-51h-11v96zm-85 0h23v-72l2-6 5-2 7 2 3 6v72h22v-72q0-11-5.5-17.5T917 1230h-21q-20 0-20 23v73zm-143-302l782-783h-70L733 954v70zm0-141l641-642h-69L733 814v69zm0-210v70l502-502h-70zm361-432h-70L733 532v71zm-333 27q-22 22-26 52l77-78q-30 4-51 26zm177-112q0-11-5.5-17.5T917 132h-21q-20 0-20 23v73h23v-72l2-6 5-3 7 3 3 6v72h22v-72zm-54 85L733 391v70l221-220h-70zm150-109h-7l-55 51v-51h-11v96h6l54-48v48h13v-96zm83 24q0-24-20-24h-42v97l42-1q20 0 20-21v-51zm75 57h-28v-28h19v-13h-19v-27h28v-13h-53v96h53v-15zm77 0h-30v-28h21v-13h-21v-40h-23v96h53v-15zm41-81h-24v96h24v-96zm96 0h-6l-54 51v-51h-11v96h6l52-48v48h13v-96zm77 81h-28v-28h19v-13h-19v-27h28v-13h-52v96h52v-15zm85-57q0-24-20-24h-42v97l41-1q21 0 21-21v-51zm52 85h-35l-852 853v35q0 15 6 31l911-913q-15-6-30-6zm71 36l-922 924q23 17 51 18l890-891q-2-28-19-51zm20 121l-820 818h69l751-748v-70z"/><glyph glyph-name="uniEA13" unicode="" d="M1720 1339H724q-48 0-80-32-33-34-33-78V232q0-47 33.5-81t79.5-34h996q45 0 79 34t34 81v997q0 45-34 78-31 32-79 32zm-100-123q39 0 64-25 27-27 27-62v-26l-117 113h26zm91-183v-70l-257 253h70zm-205 293h42q20 0 20-21v-51q0-11-5-17.5t-15-6.5h-42v96zm-75 0h52v-13h-28v-27h19v-13h-19v-28h28v-15h-52v96zm-96 0h6l52-48v48h13v-96h-6l-54 51v-51h-11v96zm49-110l327-323v-71l-397 394h70zm327-464v-73l-540 537h73l467-464zm0-143v-71l-680 678h69zm-425 717h24v-96h-24v96zm-70 2h53v-15h-30v-27h21v-13h-21v-41h-23v96zm-77-2h53v-13h-28v-27h19v-13h-19v-28h28v-15h-53v96zm-84 0h42q20 0 20-21v-51q0-11-5-17.5t-15-6.5h-42v96zm-94 0h6l54-48v48h13v-96h-7l-55 51v-51h-11v96zm-85 0h23v-72l2-6 5-2 7 2 3 6v72h22v-72q0-11-5.5-17.5T917 1230h-21q-20 0-20 23v73zm-143-302l782-783h-70L733 954v70zm0-141l641-642h-69L733 814v69zm0-210v70l502-502h-70zm361-432h-70L733 532v71zm-333 27q-22 22-26 52l77-78q-30 4-51 26zm177-112q0-11-5.5-17.5T917 132h-21q-20 0-20 23v73h23v-72l2-6 5-3 7 3 3 6v72h22v-72zm-54 85L733 391v70l221-220h-70zm150-109h-7l-55 51v-51h-11v96h6l54-48v48h13v-96zm83 24q0-24-20-24h-42v97l42-1q20 0 20-21v-51zm75 57h-28v-28h19v-13h-19v-27h28v-13h-53v96h53v-15zm77 0h-30v-28h21v-13h-21v-40h-23v96h53v-15zm41-81h-24v96h24v-96zm96 0h-6l-54 51v-51h-11v96h6l52-48v48h13v-96zm77 81h-28v-28h19v-13h-19v-27h28v-13h-52v96h52v-15zm85-57q0-24-20-24h-42v97l41-1q21 0 21-21v-51zm52 85h-35l-852 853v35q0 15 6 31l911-913q-15-6-30-6zm71 36l-922 924q23 17 51 18l890-891q-2-28-19-51zm20 121l-820 818h69l751-748v-70zm-174 915h-9v-68h9l6 3 2 6v50l-2 6zm-451 0h-9v-68h9l6 3 2 6v50l-3 6zm451-1100h-9v-68h9l6 4 2 7v50l-2 5zm-451 0h-9v-68h9l6 4 2 7v50l-3 5z"/><glyph glyph-name="uniEA14" unicode="" d="M1086 213h-9v-68h9l6 4 2 7v50l-3 5zm451 0h-9v-68h9l6 4 2 7v50l-2 5zm0 1100h-9v-68h9l6 3 2 6v50l-2 6zm-451 0h-9v-68h9l6 3 2 6v50l-3 6zm634 26H724q-48 0-80-32-33-34-33-78V232q0-47 33.5-81t79.5-34h996q45 0 79 34t34 81v997q0 45-34 78-31 32-79 32zm-100-123q39 0 64-25 27-27 27-62v-26l-117 113h26zm91-183v-70l-257 253h70zm-205 293h42q20 0 20-21v-51q0-11-5-17.5t-15-6.5h-42v96zm-75 0h52v-13h-28v-27h19v-13h-19v-28h28v-15h-52v96zm-96 0h6l52-48v48h13v-96h-6l-54 51v-51h-11v96zm49-110l327-323v-71l-397 394h70zm327-464v-73l-540 537h73l467-464zm0-143v-71l-680 678h69zm-425 717h24v-96h-24v96zm-70 2h53v-15h-30v-27h21v-13h-21v-41h-23v96zm-77-2h53v-13h-28v-27h19v-13h-19v-28h28v-15h-53v96zm-84 0h42q20 0 20-21v-51q0-11-5-17.5t-15-6.5h-42v96zm-94 0h6l54-48v48h13v-96h-7l-55 51v-51h-11v96zm-85 0h23v-72l2-6 5-2 7 2 3 6v72h22v-72q0-11-5.5-17.5T917 1230h-21q-20 0-20 23v73zm-143-302l782-783h-70L733 954v70zm0-141l641-642h-69L733 814v69zm0-210v70l502-502h-70zm361-432h-70L733 532v71zm-333 27q-22 22-26 52l77-78q-30 4-51 26zm177-112q0-11-5.5-17.5T917 132h-21q-20 0-20 23v73h23v-72l2-6 5-3 7 3 3 6v72h22v-72zm-54 85L733 391v70l221-220h-70zm150-109h-7l-55 51v-51h-11v96h6l54-48v48h13v-96zm83 24q0-24-20-24h-42v97l42-1q20 0 20-21v-51zm75 57h-28v-28h19v-13h-19v-27h28v-13h-53v96h53v-15zm77 0h-30v-28h21v-13h-21v-40h-23v96h53v-15zm41-81h-24v96h24v-96zm96 0h-6l-54 51v-51h-11v96h6l52-48v48h13v-96zm77 81h-28v-28h19v-13h-19v-27h28v-13h-52v96h52v-15zm85-57q0-24-20-24h-42v97l41-1q21 0 21-21v-51zm52 85h-35l-852 853v35q0 15 6 31l911-913q-15-6-30-6zm71 36l-922 924q23 17 51 18l890-891q-2-28-19-51zm20 121l-820 818h69l751-748v-70z"/><glyph glyph-name="uniEA15" unicode="" d="M1086 1313h-9v-68h9l6 3 2 6v50l-3 6zm634 26H724q-48 0-80-32-33-34-33-78V232q0-47 33.5-81t79.5-34h996q45 0 79 34t34 81v997q0 45-34 78-31 32-79 32zm-100-123q39 0 64-25 27-27 27-62v-26l-117 113h26zm91-183v-70l-257 253h70zm-205 293h42q20 0 20-21v-51q0-11-5-17.5t-15-6.5h-42v96zm-75 0h52v-13h-28v-27h19v-13h-19v-28h28v-15h-52v96zm-96 0h6l52-48v48h13v-96h-6l-54 51v-51h-11v96zm49-110l327-323v-71l-397 394h70zm327-464v-73l-540 537h73l467-464zm0-143v-71l-680 678h69zm-425 717h24v-96h-24v96zm-70 2h53v-15h-30v-27h21v-13h-21v-41h-23v96zm-77-2h53v-13h-28v-27h19v-13h-19v-28h28v-15h-53v96zm-84 0h42q20 0 20-21v-51q0-11-5-17.5t-15-6.5h-42v96zm-94 0h6l54-48v48h13v-96h-7l-55 51v-51h-11v96zm-85 0h23v-72l2-6 5-2 7 2 3 6v72h22v-72q0-11-5.5-17.5T917 1230h-21q-20 0-20 23v73zm-143-302l782-783h-70L733 954v70zm0-141l641-642h-69L733 814v69zm0-210v70l502-502h-70zm361-432h-70L733 532v71zm-333 27q-22 22-26 52l77-78q-30 4-51 26zm177-112q0-11-5.5-17.5T917 132h-21q-20 0-20 23v73h23v-72l2-6 5-3 7 3 3 6v72h22v-72zm-54 85L733 391v70l221-220h-70zm150-109h-7l-55 51v-51h-11v96h6l54-48v48h13v-96zm83 24q0-24-20-24h-42v97l42-1q20 0 20-21v-51zm75 57h-28v-28h19v-13h-19v-27h28v-13h-53v96h53v-15zm77 0h-30v-28h21v-13h-21v-40h-23v96h53v-15zm41-81h-24v96h24v-96zm96 0h-6l-54 51v-51h-11v96h6l52-48v48h13v-96zm77 81h-28v-28h19v-13h-19v-27h28v-13h-52v96h52v-15zm85-57q0-24-20-24h-42v97l41-1q21 0 21-21v-51zm52 85h-35l-852 853v35q0 15 6 31l911-913q-15-6-30-6zm71 36l-922 924q23 17 51 18l890-891q-2-28-19-51zm20 121l-820 818h69l751-748v-70zm-625-185h-9v-68h9l6 4 2 7v50l-3 5zm451 0h-9v-68h9l6 4 2 7v50l-2 5zm0 1100h-9v-68h9l6 3 2 6v50l-2 6z"/><glyph glyph-name="uniEA16" unicode="" d="M1720 1339H724q-48 0-80-32-33-34-33-78V232q0-47 33.5-81t79.5-34h996q45 0 79 34t34 81v997q0 45-34 78-31 32-79 32zm-100-123q39 0 64-25 27-27 27-62v-26l-117 113h26zm91-183v-70l-257 253h70zm-205 293h42q20 0 20-21v-51q0-11-5-17.5t-15-6.5h-42v96zm-75 0h52v-13h-28v-27h19v-13h-19v-28h28v-15h-52v96zm-96 0h6l52-48v48h13v-96h-6l-54 51v-51h-11v96zm49-110l327-323v-71l-397 394h70zm327-464v-73l-540 537h73l467-464zm0-143v-71l-680 678h69zm-425 717h24v-96h-24v96zm-70 2h53v-15h-30v-27h21v-13h-21v-41h-23v96zm-77-2h53v-13h-28v-27h19v-13h-19v-28h28v-15h-53v96zm-84 0h42q20 0 20-21v-51q0-11-5-17.5t-15-6.5h-42v96zm-94 0h6l54-48v48h13v-96h-7l-55 51v-51h-11v96zm-85 0h23v-72l2-6 5-2 7 2 3 6v72h22v-72q0-11-5.5-17.5T917 1230h-21q-20 0-20 23v73zm-143-302l782-783h-70L733 954v70zm0-141l641-642h-69L733 814v69zm0-210v70l502-502h-70zm361-432h-70L733 532v71zm-333 27q-22 22-26 52l77-78q-30 4-51 26zm177-112q0-11-5.5-17.5T917 132h-21q-20 0-20 23v73h23v-72l2-6 5-3 7 3 3 6v72h22v-72zm-54 85L733 391v70l221-220h-70zm150-109h-7l-55 51v-51h-11v96h6l54-48v48h13v-96zm83 24q0-24-20-24h-42v97l42-1q20 0 20-21v-51zm75 57h-28v-28h19v-13h-19v-27h28v-13h-53v96h53v-15zm77 0h-30v-28h21v-13h-21v-40h-23v96h53v-15zm41-81h-24v96h24v-96zm96 0h-6l-54 51v-51h-11v96h6l52-48v48h13v-96zm77 81h-28v-28h19v-13h-19v-27h28v-13h-52v96h52v-15zm85-57q0-24-20-24h-42v97l41-1q21 0 21-21v-51zm52 85h-35l-852 853v35q0 15 6 31l911-913q-15-6-30-6zm71 36l-922 924q23 17 51 18l890-891q-2-28-19-51zm20 121l-820 818h69l751-748v-70zm-174 915h-9v-68h9l6 3 2 6v50l-2 6zM1086 213h-9v-68h9l6 4 2 7v50l-3 5zm451 0h-9v-68h9l6 4 2 7v50l-2 5zm-451 1100h-9v-68h9l6 3 2 6v50l-3 6z"/><glyph glyph-name="uniEA17" unicode="" d="M1720 1339H724q-48 0-80-32-33-34-33-78V232q0-47 33.5-81t79.5-34h996q45 0 79 34t34 81v997q0 45-34 78-31 32-79 32zm-100-123q39 0 64-25 27-27 27-62v-26l-117 113h26zm91-183v-70l-257 253h70zm-205 293h42q20 0 20-21v-51q0-11-5-17.5t-15-6.5h-42v96zm-75 0h52v-13h-28v-27h19v-13h-19v-28h28v-15h-52v96zm-96 0h6l52-48v48h13v-96h-6l-54 51v-51h-11v96zm49-110l327-323v-71l-397 394h70zm327-464v-73l-540 537h73l467-464zm0-143v-71l-680 678h69zm-425 717h24v-96h-24v96zm-70 2h53v-15h-30v-27h21v-13h-21v-41h-23v96zm-77-2h53v-13h-28v-27h19v-13h-19v-28h28v-15h-53v96zm-84 0h42q20 0 20-21v-51q0-11-5-17.5t-15-6.5h-42v96zm-94 0h6l54-48v48h13v-96h-7l-55 51v-51h-11v96zm-85 0h23v-72l2-6 5-2 7 2 3 6v72h22v-72q0-11-5.5-17.5T917 1230h-21q-20 0-20 23v73zm-143-302l782-783h-70L733 954v70zm0-141l641-642h-69L733 814v69zm0-210v70l502-502h-70zm361-432h-70L733 532v71zm-333 27q-22 22-26 52l77-78q-30 4-51 26zm177-112q0-11-5.5-17.5T917 132h-21q-20 0-20 23v73h23v-72l2-6 5-3 7 3 3 6v72h22v-72zm-54 85L733 391v70l221-220h-70zm150-109h-7l-55 51v-51h-11v96h6l54-48v48h13v-96zm83 24q0-24-20-24h-42v97l42-1q20 0 20-21v-51zm75 57h-28v-28h19v-13h-19v-27h28v-13h-53v96h53v-15zm77 0h-30v-28h21v-13h-21v-40h-23v96h53v-15zm41-81h-24v96h24v-96zm96 0h-6l-54 51v-51h-11v96h6l52-48v48h13v-96zm77 81h-28v-28h19v-13h-19v-27h28v-13h-52v96h52v-15zm85-57q0-24-20-24h-42v97l41-1q21 0 21-21v-51zm52 85h-35l-852 853v35q0 15 6 31l911-913q-15-6-30-6zm71 36l-922 924q23 17 51 18l890-891q-2-28-19-51zm20 121l-820 818h69l751-748v-70zm-174-185h-9v-68h9l6 4 2 7v50l-2 5zm-451 0h-9v-68h9l6 4 2 7v50l-3 5zm451 1100h-9v-68h9l6 3 2 6v50l-2 6zm-451 0h-9v-68h9l6 3 2 6v50l-3 6z"/><glyph glyph-name="uniEA18" unicode="" d="M1537 213h-9v-68h9l6 4 2 7v50l-2 5zm-451 0h-9v-68h9l6 4 2 7v50l-3 5zm634 1126H724q-48 0-80-32-33-34-33-78V232q0-47 33.5-81t79.5-34h996q45 0 79 34t34 81v997q0 45-34 78-31 32-79 32zm-100-123q39 0 64-25 27-27 27-62v-26l-117 113h26zm91-183v-70l-257 253h70zm-205 293h42q20 0 20-21v-51q0-11-5-17.5t-15-6.5h-42v96zm-75 0h52v-13h-28v-27h19v-13h-19v-28h28v-15h-52v96zm-96 0h6l52-48v48h13v-96h-6l-54 51v-51h-11v96zm49-110l327-323v-71l-397 394h70zm327-464v-73l-540 537h73l467-464zm0-143v-71l-680 678h69zm-425 717h24v-96h-24v96zm-70 2h53v-15h-30v-27h21v-13h-21v-41h-23v96zm-77-2h53v-13h-28v-27h19v-13h-19v-28h28v-15h-53v96zm-84 0h42q20 0 20-21v-51q0-11-5-17.5t-15-6.5h-42v96zm-94 0h6l54-48v48h13v-96h-7l-55 51v-51h-11v96zm-85 0h23v-72l2-6 5-2 7 2 3 6v72h22v-72q0-11-5.5-17.5T917 1230h-21q-20 0-20 23v73zm-143-302l782-783h-70L733 954v70zm0-141l641-642h-69L733 814v69zm0-210v70l502-502h-70zm361-432h-70L733 532v71zm-333 27q-22 22-26 52l77-78q-30 4-51 26zm177-112q0-11-5.5-17.5T917 132h-21q-20 0-20 23v73h23v-72l2-6 5-3 7 3 3 6v72h22v-72zm-54 85L733 391v70l221-220h-70zm150-109h-7l-55 51v-51h-11v96h6l54-48v48h13v-96zm83 24q0-24-20-24h-42v97l42-1q20 0 20-21v-51zm75 57h-28v-28h19v-13h-19v-27h28v-13h-53v96h53v-15zm77 0h-30v-28h21v-13h-21v-40h-23v96h53v-15zm41-81h-24v96h24v-96zm96 0h-6l-54 51v-51h-11v96h6l52-48v48h13v-96zm77 81h-28v-28h19v-13h-19v-27h28v-13h-52v96h52v-15zm85-57q0-24-20-24h-42v97l41-1q21 0 21-21v-51zm52 85h-35l-852 853v35q0 15 6 31l911-913q-15-6-30-6zm71 36l-922 924q23 17 51 18l890-891q-2-28-19-51zm20 121l-820 818h69l751-748v-70zm-625 915h-9v-68h9l6 3 2 6v50l-3 6zm451 0h-9v-68h9l6 3 2 6v50l-2 6z"/><glyph glyph-name="uniEA19" unicode="" d="M1537 1313h-9v-68h9l6 3 2 6v50l-2 6zM1086 213h-9v-68h9l6 4 2 7v50l-3 5zm0 1100h-9v-68h9l6 3 2 6v50l-3 6zm451-1100h-9v-68h9l6 4 2 7v50l-2 5zm183 1126H724q-48 0-80-32-33-34-33-78V232q0-47 33.5-81t79.5-34h996q45 0 79 34t34 81v997q0 45-34 78-31 32-79 32zm-100-123q39 0 64-25 27-27 27-62v-26l-117 113h26zm91-183v-70l-257 253h70zm-205 293h42q20 0 20-21v-51q0-11-5-17.5t-15-6.5h-42v96zm-75 0h52v-13h-28v-27h19v-13h-19v-28h28v-15h-52v96zm-96 0h6l52-48v48h13v-96h-6l-54 51v-51h-11v96zm49-110l327-323v-71l-397 394h70zm327-464v-73l-540 537h73l467-464zm0-143v-71l-680 678h69zm-425 717h24v-96h-24v96zm-70 2h53v-15h-30v-27h21v-13h-21v-41h-23v96zm-77-2h53v-13h-28v-27h19v-13h-19v-28h28v-15h-53v96zm-84 0h42q20 0 20-21v-51q0-11-5-17.5t-15-6.5h-42v96zm-94 0h6l54-48v48h13v-96h-7l-55 51v-51h-11v96zm-85 0h23v-72l2-6 5-2 7 2 3 6v72h22v-72q0-11-5.5-17.5T917 1230h-21q-20 0-20 23v73zm-143-302l782-783h-70L733 954v70zm0-141l641-642h-69L733 814v69zm0-210v70l502-502h-70zm361-432h-70L733 532v71zm-333 27q-22 22-26 52l77-78q-30 4-51 26zm177-112q0-11-5.5-17.5T917 132h-21q-20 0-20 23v73h23v-72l2-6 5-3 7 3 3 6v72h22v-72zm-54 85L733 391v70l221-220h-70zm150-109h-7l-55 51v-51h-11v96h6l54-48v48h13v-96zm83 24q0-24-20-24h-42v97l42-1q20 0 20-21v-51zm75 57h-28v-28h19v-13h-19v-27h28v-13h-53v96h53v-15zm77 0h-30v-28h21v-13h-21v-40h-23v96h53v-15zm41-81h-24v96h24v-96zm96 0h-6l-54 51v-51h-11v96h6l52-48v48h13v-96zm77 81h-28v-28h19v-13h-19v-27h28v-13h-52v96h52v-15zm85-57q0-24-20-24h-42v97l41-1q21 0 21-21v-51zm52 85h-35l-852 853v35q0 15 6 31l911-913q-15-6-30-6zm71 36l-922 924q23 17 51 18l890-891q-2-28-19-51zm20 121l-820 818h69l751-748v-70z"/><glyph glyph-name="uniEA1A" unicode="" d="M1086 1313h-9v-68h9l6 3 2 6v50l-3 6zm451-1100h-9v-68h9l6 4 2 7v50l-2 5zm0 1100h-9v-68h9l6 3 2 6v50l-2 6zM1086 213h-9v-68h9l6 4 2 7v50l-3 5zm634 1126H724q-48 0-80-32-33-34-33-78V232q0-47 33.5-81t79.5-34h996q45 0 79 34t34 81v997q0 45-34 78-31 32-79 32zm-100-123q39 0 64-25 27-27 27-62v-26l-117 113h26zm91-183v-70l-257 253h70zm-205 293h42q20 0 20-21v-51q0-11-5-17.5t-15-6.5h-42v96zm-75 0h52v-13h-28v-27h19v-13h-19v-28h28v-15h-52v96zm-96 0h6l52-48v48h13v-96h-6l-54 51v-51h-11v96zm49-110l327-323v-71l-397 394h70zm327-464v-73l-540 537h73l467-464zm0-143v-71l-680 678h69zm-425 717h24v-96h-24v96zm-70 2h53v-15h-30v-27h21v-13h-21v-41h-23v96zm-77-2h53v-13h-28v-27h19v-13h-19v-28h28v-15h-53v96zm-84 0h42q20 0 20-21v-51q0-11-5-17.5t-15-6.5h-42v96zm-94 0h6l54-48v48h13v-96h-7l-55 51v-51h-11v96zm-85 0h23v-72l2-6 5-2 7 2 3 6v72h22v-72q0-11-5.5-17.5T917 1230h-21q-20 0-20 23v73zm-143-302l782-783h-70L733 954v70zm0-141l641-642h-69L733 814v69zm0-210v70l502-502h-70zm361-432h-70L733 532v71zm-333 27q-22 22-26 52l77-78q-30 4-51 26zm177-112q0-11-5.5-17.5T917 132h-21q-20 0-20 23v73h23v-72l2-6 5-3 7 3 3 6v72h22v-72zm-54 85L733 391v70l221-220h-70zm150-109h-7l-55 51v-51h-11v96h6l54-48v48h13v-96zm83 24q0-24-20-24h-42v97l42-1q20 0 20-21v-51zm75 57h-28v-28h19v-13h-19v-27h28v-13h-53v96h53v-15zm77 0h-30v-28h21v-13h-21v-40h-23v96h53v-15zm41-81h-24v96h24v-96zm96 0h-6l-54 51v-51h-11v96h6l52-48v48h13v-96zm77 81h-28v-28h19v-13h-19v-27h28v-13h-52v96h52v-15zm85-57q0-24-20-24h-42v97l41-1q21 0 21-21v-51zm52 85h-35l-852 853v35q0 15 6 31l911-913q-15-6-30-6zm71 36l-922 924q23 17 51 18l890-891q-2-28-19-51zm20 121l-820 818h69l751-748v-70z"/><glyph glyph-name="uniEA1B" unicode="" d="M1086 213h-9v-68h9l6 4 2 7v50l-3 5zm634 1126H724q-48 0-80-32-33-34-33-78V232q0-47 33.5-81t79.5-34h996q45 0 79 34t34 81v997q0 45-34 78-31 32-79 32zm-100-123q39 0 64-25 27-27 27-62v-26l-117 113h26zm91-183v-70l-257 253h70zm-205 293h42q20 0 20-21v-51q0-11-5-17.5t-15-6.5h-42v96zm-75 0h52v-13h-28v-27h19v-13h-19v-28h28v-15h-52v96zm-96 0h6l52-48v48h13v-96h-6l-54 51v-51h-11v96zm49-110l327-323v-71l-397 394h70zm327-464v-73l-540 537h73l467-464zm0-143v-71l-680 678h69zm-425 717h24v-96h-24v96zm-70 2h53v-15h-30v-27h21v-13h-21v-41h-23v96zm-77-2h53v-13h-28v-27h19v-13h-19v-28h28v-15h-53v96zm-84 0h42q20 0 20-21v-51q0-11-5-17.5t-15-6.5h-42v96zm-94 0h6l54-48v48h13v-96h-7l-55 51v-51h-11v96zm-85 0h23v-72l2-6 5-2 7 2 3 6v72h22v-72q0-11-5.5-17.5T917 1230h-21q-20 0-20 23v73zm-143-302l782-783h-70L733 954v70zm0-141l641-642h-69L733 814v69zm0-210v70l502-502h-70zm361-432h-70L733 532v71zm-333 27q-22 22-26 52l77-78q-30 4-51 26zm177-112q0-11-5.5-17.5T917 132h-21q-20 0-20 23v73h23v-72l2-6 5-3 7 3 3 6v72h22v-72zm-54 85L733 391v70l221-220h-70zm150-109h-7l-55 51v-51h-11v96h6l54-48v48h13v-96zm83 24q0-24-20-24h-42v97l42-1q20 0 20-21v-51zm75 57h-28v-28h19v-13h-19v-27h28v-13h-53v96h53v-15zm77 0h-30v-28h21v-13h-21v-40h-23v96h53v-15zm41-81h-24v96h24v-96zm96 0h-6l-54 51v-51h-11v96h6l52-48v48h13v-96zm77 81h-28v-28h19v-13h-19v-27h28v-13h-52v96h52v-15zm85-57q0-24-20-24h-42v97l41-1q21 0 21-21v-51zm52 85h-35l-852 853v35q0 15 6 31l911-913q-15-6-30-6zm71 36l-922 924q23 17 51 18l890-891q-2-28-19-51zm20 121l-820 818h69l751-748v-70zm-174-185h-9v-68h9l6 4 2 7v50l-2 5zm0 1100h-9v-68h9l6 3 2 6v50l-2 6zm-451 0h-9v-68h9l6 3 2 6v50l-3 6z"/><glyph glyph-name="uniEA1C" unicode="" d="M1086 213h-9v-68h9l6 4 2 7v50l-3 5zm634 1126H724q-48 0-80-32-33-34-33-78V232q0-47 33.5-81t79.5-34h996q45 0 79 34t34 81v997q0 45-34 78-31 32-79 32zm-100-123q39 0 64-25 27-27 27-62v-26l-117 113h26zm91-183v-70l-257 253h70zm-205 293h42q20 0 20-21v-51q0-11-5-17.5t-15-6.5h-42v96zm-75 0h52v-13h-28v-27h19v-13h-19v-28h28v-15h-52v96zm-96 0h6l52-48v48h13v-96h-6l-54 51v-51h-11v96zm49-110l327-323v-71l-397 394h70zm327-464v-73l-540 537h73l467-464zm0-143v-71l-680 678h69zm-425 717h24v-96h-24v96zm-70 2h53v-15h-30v-27h21v-13h-21v-41h-23v96zm-77-2h53v-13h-28v-27h19v-13h-19v-28h28v-15h-53v96zm-84 0h42q20 0 20-21v-51q0-11-5-17.5t-15-6.5h-42v96zm-94 0h6l54-48v48h13v-96h-7l-55 51v-51h-11v96zm-85 0h23v-72l2-6 5-2 7 2 3 6v72h22v-72q0-11-5.5-17.5T917 1230h-21q-20 0-20 23v73zm-143-302l782-783h-70L733 954v70zm0-141l641-642h-69L733 814v69zm0-210v70l502-502h-70zm361-432h-70L733 532v71zm-333 27q-22 22-26 52l77-78q-30 4-51 26zm177-112q0-11-5.5-17.5T917 132h-21q-20 0-20 23v73h23v-72l2-6 5-3 7 3 3 6v72h22v-72zm-54 85L733 391v70l221-220h-70zm150-109h-7l-55 51v-51h-11v96h6l54-48v48h13v-96zm83 24q0-24-20-24h-42v97l42-1q20 0 20-21v-51zm75 57h-28v-28h19v-13h-19v-27h28v-13h-53v96h53v-15zm77 0h-30v-28h21v-13h-21v-40h-23v96h53v-15zm41-81h-24v96h24v-96zm96 0h-6l-54 51v-51h-11v96h6l52-48v48h13v-96zm77 81h-28v-28h19v-13h-19v-27h28v-13h-52v96h52v-15zm85-57q0-24-20-24h-42v97l41-1q21 0 21-21v-51zm52 85h-35l-852 853v35q0 15 6 31l911-913q-15-6-30-6zm71 36l-922 924q23 17 51 18l890-891q-2-28-19-51zm20 121l-820 818h69l751-748v-70zm-174 915h-9v-68h9l6 3 2 6v50l-2 6zm0-1100h-9v-68h9l6 4 2 7v50l-2 5zm-451 1100h-9v-68h9l6 3 2 6v50l-3 6z"/><glyph glyph-name="uniEA1D" unicode="" d="M1086 213h-9v-68h9l6 4 2 7v50l-3 5zm451 0h-9v-68h9l6 4 2 7v50l-2 5zm-451 1100h-9v-68h9l6 3 2 6v50l-3 6zm451 0h-9v-68h9l6 3 2 6v50l-2 6zm183 26H724q-48 0-80-32-33-34-33-78V232q0-47 33.5-81t79.5-34h996q45 0 79 34t34 81v997q0 45-34 78-31 32-79 32zm-100-123q39 0 64-25 27-27 27-62v-26l-117 113h26zm91-183v-70l-257 253h70zm-205 293h42q20 0 20-21v-51q0-11-5-17.5t-15-6.5h-42v96zm-75 0h52v-13h-28v-27h19v-13h-19v-28h28v-15h-52v96zm-96 0h6l52-48v48h13v-96h-6l-54 51v-51h-11v96zm49-110l327-323v-71l-397 394h70zm327-464v-73l-540 537h73l467-464zm0-143v-71l-680 678h69zm-425 717h24v-96h-24v96zm-70 2h53v-15h-30v-27h21v-13h-21v-41h-23v96zm-77-2h53v-13h-28v-27h19v-13h-19v-28h28v-15h-53v96zm-84 0h42q20 0 20-21v-51q0-11-5-17.5t-15-6.5h-42v96zm-94 0h6l54-48v48h13v-96h-7l-55 51v-51h-11v96zm-85 0h23v-72l2-6 5-2 7 2 3 6v72h22v-72q0-11-5.5-17.5T917 1230h-21q-20 0-20 23v73zm-143-302l782-783h-70L733 954v70zm0-141l641-642h-69L733 814v69zm0-210v70l502-502h-70zm361-432h-70L733 532v71zm-333 27q-22 22-26 52l77-78q-30 4-51 26zm177-112q0-11-5.5-17.5T917 132h-21q-20 0-20 23v73h23v-72l2-6 5-3 7 3 3 6v72h22v-72zm-54 85L733 391v70l221-220h-70zm150-109h-7l-55 51v-51h-11v96h6l54-48v48h13v-96zm83 24q0-24-20-24h-42v97l42-1q20 0 20-21v-51zm75 57h-28v-28h19v-13h-19v-27h28v-13h-53v96h53v-15zm77 0h-30v-28h21v-13h-21v-40h-23v96h53v-15zm41-81h-24v96h24v-96zm96 0h-6l-54 51v-51h-11v96h6l52-48v48h13v-96zm77 81h-28v-28h19v-13h-19v-27h28v-13h-52v96h52v-15zm85-57q0-24-20-24h-42v97l41-1q21 0 21-21v-51zm52 85h-35l-852 853v35q0 15 6 31l911-913q-15-6-30-6zm71 36l-922 924q23 17 51 18l890-891q-2-28-19-51zm20 121l-820 818h69l751-748v-70z"/><glyph glyph-name="uniEA1E" unicode="" d="M1720 1339H724q-48 0-80-32-33-34-33-78V232q0-47 33.5-81t79.5-34h996q45 0 79 34t34 81v997q0 45-34 78-31 32-79 32zm-100-123q39 0 64-25 27-27 27-62v-26l-117 113h26zm91-183v-70l-257 253h70zm-205 293h42q20 0 20-21v-51q0-11-5-17.5t-15-6.5h-42v96zm-75 0h52v-13h-28v-27h19v-13h-19v-28h28v-15h-52v96zm-96 0h6l52-48v48h13v-96h-6l-54 51v-51h-11v96zm49-110l327-323v-71l-397 394h70zm327-464v-73l-540 537h73l467-464zm0-143v-71l-680 678h69zm-425 717h24v-96h-24v96zm-70 2h53v-15h-30v-27h21v-13h-21v-41h-23v96zm-77-2h53v-13h-28v-27h19v-13h-19v-28h28v-15h-53v96zm-84 0h42q20 0 20-21v-51q0-11-5-17.5t-15-6.5h-42v96zm-94 0h6l54-48v48h13v-96h-7l-55 51v-51h-11v96zm-85 0h23v-72l2-6 5-2 7 2 3 6v72h22v-72q0-11-5.5-17.5T917 1230h-21q-20 0-20 23v73zm-143-302l782-783h-70L733 954v70zm0-141l641-642h-69L733 814v69zm0-210v70l502-502h-70zm361-432h-70L733 532v71zm-333 27q-22 22-26 52l77-78q-30 4-51 26zm177-112q0-11-5.5-17.5T917 132h-21q-20 0-20 23v73h23v-72l2-6 5-3 7 3 3 6v72h22v-72zm-54 85L733 391v70l221-220h-70zm150-109h-7l-55 51v-51h-11v96h6l54-48v48h13v-96zm83 24q0-24-20-24h-42v97l42-1q20 0 20-21v-51zm75 57h-28v-28h19v-13h-19v-27h28v-13h-53v96h53v-15zm77 0h-30v-28h21v-13h-21v-40h-23v96h53v-15zm41-81h-24v96h24v-96zm96 0h-6l-54 51v-51h-11v96h6l52-48v48h13v-96zm77 81h-28v-28h19v-13h-19v-27h28v-13h-52v96h52v-15zm85-57q0-24-20-24h-42v97l41-1q21 0 21-21v-51zm52 85h-35l-852 853v35q0 15 6 31l911-913q-15-6-30-6zm71 36l-922 924q23 17 51 18l890-891q-2-28-19-51zm20 121l-820 818h69l751-748v-70zm-625 915h-9v-68h9l6 3 2 6v50l-3 6zm451 0h-9v-68h9l6 3 2 6v50l-2 6zM1086 213h-9v-68h9l6 4 2 7v50l-3 5zm451 0h-9v-68h9l6 4 2 7v50l-2 5z"/><glyph glyph-name="uniEA1F" unicode="" d="M1720 1339H724q-48 0-80-32-33-34-33-78V232q0-47 33.5-81t79.5-34h996q45 0 79 34t34 81v997q0 45-34 78-31 32-79 32zm-100-123q39 0 64-25 27-27 27-62v-26l-117 113h26zm91-183v-70l-257 253h70zm-205 293h42q20 0 20-21v-51q0-11-5-17.5t-15-6.5h-42v96zm-75 0h52v-13h-28v-27h19v-13h-19v-28h28v-15h-52v96zm-96 0h6l52-48v48h13v-96h-6l-54 51v-51h-11v96zm49-110l327-323v-71l-397 394h70zm327-464v-73l-540 537h73l467-464zm0-143v-71l-680 678h69zm-425 717h24v-96h-24v96zm-70 2h53v-15h-30v-27h21v-13h-21v-41h-23v96zm-77-2h53v-13h-28v-27h19v-13h-19v-28h28v-15h-53v96zm-84 0h42q20 0 20-21v-51q0-11-5-17.5t-15-6.5h-42v96zm-94 0h6l54-48v48h13v-96h-7l-55 51v-51h-11v96zm-85 0h23v-72l2-6 5-2 7 2 3 6v72h22v-72q0-11-5.5-17.5T917 1230h-21q-20 0-20 23v73zm-143-302l782-783h-70L733 954v70zm0-141l641-642h-69L733 814v69zm0-210v70l502-502h-70zm361-432h-70L733 532v71zm-333 27q-22 22-26 52l77-78q-30 4-51 26zm177-112q0-11-5.5-17.5T917 132h-21q-20 0-20 23v73h23v-72l2-6 5-3 7 3 3 6v72h22v-72zm-54 85L733 391v70l221-220h-70zm150-109h-7l-55 51v-51h-11v96h6l54-48v48h13v-96zm83 24q0-24-20-24h-42v97l42-1q20 0 20-21v-51zm75 57h-28v-28h19v-13h-19v-27h28v-13h-53v96h53v-15zm77 0h-30v-28h21v-13h-21v-40h-23v96h53v-15zm41-81h-24v96h24v-96zm96 0h-6l-54 51v-51h-11v96h6l52-48v48h13v-96zm77 81h-28v-28h19v-13h-19v-27h28v-13h-52v96h52v-15zm85-57q0-24-20-24h-42v97l41-1q21 0 21-21v-51zm52 85h-35l-852 853v35q0 15 6 31l911-913q-15-6-30-6zm71 36l-922 924q23 17 51 18l890-891q-2-28-19-51zm20 121l-820 818h69l751-748v-70zm-174 915h-9v-68h9l6 3 2 6v50l-2 6zm0-1100h-9v-68h9l6 4 2 7v50l-2 5zm-451 1100h-9v-68h9l6 3 2 6v50l-3 6zm0-1100h-9v-68h9l6 4 2 7v50l-3 5z"/><glyph glyph-name="uniEA20" unicode="" d="M1086 1313h-9v-68h9l6 3 2 6v50l-3 6zm451 0h-9v-68h9l6 3 2 6v50l-2 6zM1086 213h-9v-68h9l6 4 2 7v50l-3 5zm451 0h-9v-68h9l6 4 2 7v50l-2 5zm183 1126H724q-48 0-80-32-33-34-33-78V232q0-47 33.5-81t79.5-34h996q45 0 79 34t34 81v997q0 45-34 78-31 32-79 32zm-100-123q39 0 64-25 27-27 27-62v-26l-117 113h26zm91-183v-70l-257 253h70zm-205 293h42q20 0 20-21v-51q0-11-5-17.5t-15-6.5h-42v96zm-75 0h52v-13h-28v-27h19v-13h-19v-28h28v-15h-52v96zm-96 0h6l52-48v48h13v-96h-6l-54 51v-51h-11v96zm49-110l327-323v-71l-397 394h70zm327-464v-73l-540 537h73l467-464zm0-143v-71l-680 678h69zm-425 717h24v-96h-24v96zm-70 2h53v-15h-30v-27h21v-13h-21v-41h-23v96zm-77-2h53v-13h-28v-27h19v-13h-19v-28h28v-15h-53v96zm-84 0h42q20 0 20-21v-51q0-11-5-17.5t-15-6.5h-42v96zm-94 0h6l54-48v48h13v-96h-7l-55 51v-51h-11v96zm-85 0h23v-72l2-6 5-2 7 2 3 6v72h22v-72q0-11-5.5-17.5T917 1230h-21q-20 0-20 23v73zm-143-302l782-783h-70L733 954v70zm0-141l641-642h-69L733 814v69zm0-210v70l502-502h-70zm361-432h-70L733 532v71zm-333 27q-22 22-26 52l77-78q-30 4-51 26zm177-112q0-11-5.5-17.5T917 132h-21q-20 0-20 23v73h23v-72l2-6 5-3 7 3 3 6v72h22v-72zm-54 85L733 391v70l221-220h-70zm150-109h-7l-55 51v-51h-11v96h6l54-48v48h13v-96zm83 24q0-24-20-24h-42v97l42-1q20 0 20-21v-51zm75 57h-28v-28h19v-13h-19v-27h28v-13h-53v96h53v-15zm77 0h-30v-28h21v-13h-21v-40h-23v96h53v-15zm41-81h-24v96h24v-96zm96 0h-6l-54 51v-51h-11v96h6l52-48v48h13v-96zm77 81h-28v-28h19v-13h-19v-27h28v-13h-52v96h52v-15zm85-57q0-24-20-24h-42v97l41-1q21 0 21-21v-51zm52 85h-35l-852 853v35q0 15 6 31l911-913q-15-6-30-6zm71 36l-922 924q23 17 51 18l890-891q-2-28-19-51zm20 121l-820 818h69l751-748v-70z"/><glyph glyph-name="uniEA21" unicode="" d="M1720 117q45 0 79 34t34 81v997q0 45-34 78-31 32-79 32H724q-48 0-80-32-33-34-33-78V232q0-47 33.5-81t79.5-34h996zM761 268q-22 22-26 52l77-78q-30 4-51 26zm177-112q0-11-5.5-17.5T917 132h-21q-20 0-20 23v73h23v-72l2-6 5-3 7 3 3 6v72h22v-72zm-54 85L733 391v70l221-220h-70zm210 0h-70L733 532v71zM733 673v70l502-502h-70zm301-541h-7l-55 51v-51h-11v96h6l54-48v48h13v-96zm83 24q0-24-20-24h-42v97l42-1q20 0 20-21v-51zm75 57h-28v-28h19v-13h-19v-27h28v-13h-53v96h53v-15zm77 0h-30v-28h21v-13h-21v-40h-23v96h53v-15zm41-81h-24v96h24v-96zm96 0h-6l-54 51v-51h-11v96h6l52-48v48h13v-96zm77 81h-28v-28h19v-13h-19v-27h28v-13h-52v96h52v-15zm85-57q0-24-20-24h-42v97l41-1q21 0 21-21v-51zm52 1060q39 0 64-25 27-27 27-62v-26l-117 113h26zm91-183v-70l-257 253h70zm-205 293h42q20 0 20-21v-51q0-11-5-17.5t-15-6.5h-42v96zm-75 0h52v-13h-28v-27h19v-13h-19v-28h28v-15h-52v96zm-96 0h6l52-48v48h13v-96h-6l-54 51v-51h-11v96zm49-110l327-323v-71l-397 394h70zm327-464v-73l-540 537h73l467-464zm0-143v-71l-680 678h69zm-425 717h24v-96h-24v96zm-70 2h53v-15h-30v-27h21v-13h-21v-41h-23v96zm-77-2h53v-13h-28v-27h19v-13h-19v-28h28v-15h-53v96zm-84 0h42q20 0 20-21v-51q0-11-5-17.5t-15-6.5h-42v96zm-94 0h6l54-48v48h13v-96h-7l-55 51v-51h-11v96zm750-858v-70l-820 818h69zm-835 858h23v-72l2-6 5-2 7 2 3 6v72h22v-72q0-11-5.5-17.5T917 1230h-21q-20 0-20 23v73zm-56-107l890-891q-2-28-19-51l-922 924q23 17 51 18zm-87-90q0 15 6 31l911-913q-15-6-30-6h-35l-852 853v35zm0-105l782-783h-70L733 954v70zm0-141l641-642h-69L733 814v69zm353-670h-9v-68h9l6 4 2 7v50l-3 5zm0 1100h-9v-68h9l6 3 2 6v50l-3 6zm451 0h-9v-68h9l6 3 2 6v50l-2 6zm0-1100h-9v-68h9l6 4 2 7v50l-2 5z"/><glyph glyph-name="uniEA22" unicode="" d="M1537 1313h-9v-68h9l6 3 2 6v50l-2 6zm-451 0h-9v-68h9l6 3 2 6v50l-3 6zm451-1100h-9v-68h9l6 4 2 7v50l-2 5zm-451 0h-9v-68h9l6 4 2 7v50l-3 5zm634 1126H724q-48 0-80-32-33-34-33-78V232q0-47 33.5-81t79.5-34h996q45 0 79 34t34 81v997q0 45-34 78-31 32-79 32zm-100-123q39 0 64-25 27-27 27-62v-26l-117 113h26zm91-183v-70l-257 253h70zm-205 293h42q20 0 20-21v-51q0-11-5-17.5t-15-6.5h-42v96zm-75 0h52v-13h-28v-27h19v-13h-19v-28h28v-15h-52v96zm-96 0h6l52-48v48h13v-96h-6l-54 51v-51h-11v96zm49-110l327-323v-71l-397 394h70zm327-464v-73l-540 537h73l467-464zm0-143v-71l-680 678h69zm-425 717h24v-96h-24v96zm-70 2h53v-15h-30v-27h21v-13h-21v-41h-23v96zm-77-2h53v-13h-28v-27h19v-13h-19v-28h28v-15h-53v96zm-84 0h42q20 0 20-21v-51q0-11-5-17.5t-15-6.5h-42v96zm-94 0h6l54-48v48h13v-96h-7l-55 51v-51h-11v96zm-85 0h23v-72l2-6 5-2 7 2 3 6v72h22v-72q0-11-5.5-17.5T917 1230h-21q-20 0-20 23v73zm-143-302l782-783h-70L733 954v70zm0-141l641-642h-69L733 814v69zm0-210v70l502-502h-70zm361-432h-70L733 532v71zm-333 27q-22 22-26 52l77-78q-30 4-51 26zm177-112q0-11-5.5-17.5T917 132h-21q-20 0-20 23v73h23v-72l2-6 5-3 7 3 3 6v72h22v-72zm-54 85L733 391v70l221-220h-70zm150-109h-7l-55 51v-51h-11v96h6l54-48v48h13v-96zm83 24q0-24-20-24h-42v97l42-1q20 0 20-21v-51zm75 57h-28v-28h19v-13h-19v-27h28v-13h-53v96h53v-15zm77 0h-30v-28h21v-13h-21v-40h-23v96h53v-15zm41-81h-24v96h24v-96zm96 0h-6l-54 51v-51h-11v96h6l52-48v48h13v-96zm77 81h-28v-28h19v-13h-19v-27h28v-13h-52v96h52v-15zm85-57q0-24-20-24h-42v97l41-1q21 0 21-21v-51zm52 85h-35l-852 853v35q0 15 6 31l911-913q-15-6-30-6zm71 36l-922 924q23 17 51 18l890-891q-2-28-19-51zm20 121l-820 818h69l751-748v-70z"/><glyph glyph-name="uniEA23" unicode="" d="M1537 213h-9v-68h9l6 4 2 7v50l-2 5zm-451 1100h-9v-68h9l6 3 2 6v50l-3 6zm0-1100h-9v-68h9l6 4 2 7v50l-3 5zm634 1126H724q-48 0-80-32-33-34-33-78V232q0-47 33.5-81t79.5-34h996q45 0 79 34t34 81v997q0 45-34 78-31 32-79 32zm-100-123q39 0 64-25 27-27 27-62v-26l-117 113h26zm91-183v-70l-257 253h70zm-205 293h42q20 0 20-21v-51q0-11-5-17.5t-15-6.5h-42v96zm-75 0h52v-13h-28v-27h19v-13h-19v-28h28v-15h-52v96zm-96 0h6l52-48v48h13v-96h-6l-54 51v-51h-11v96zm49-110l327-323v-71l-397 394h70zm327-464v-73l-540 537h73l467-464zm0-143v-71l-680 678h69zm-425 717h24v-96h-24v96zm-70 2h53v-15h-30v-27h21v-13h-21v-41h-23v96zm-77-2h53v-13h-28v-27h19v-13h-19v-28h28v-15h-53v96zm-84 0h42q20 0 20-21v-51q0-11-5-17.5t-15-6.5h-42v96zm-94 0h6l54-48v48h13v-96h-7l-55 51v-51h-11v96zm-85 0h23v-72l2-6 5-2 7 2 3 6v72h22v-72q0-11-5.5-17.5T917 1230h-21q-20 0-20 23v73zm-143-302l782-783h-70L733 954v70zm0-141l641-642h-69L733 814v69zm0-210v70l502-502h-70zm361-432h-70L733 532v71zm-333 27q-22 22-26 52l77-78q-30 4-51 26zm177-112q0-11-5.5-17.5T917 132h-21q-20 0-20 23v73h23v-72l2-6 5-3 7 3 3 6v72h22v-72zm-54 85L733 391v70l221-220h-70zm150-109h-7l-55 51v-51h-11v96h6l54-48v48h13v-96zm83 24q0-24-20-24h-42v97l42-1q20 0 20-21v-51zm75 57h-28v-28h19v-13h-19v-27h28v-13h-53v96h53v-15zm77 0h-30v-28h21v-13h-21v-40h-23v96h53v-15zm41-81h-24v96h24v-96zm96 0h-6l-54 51v-51h-11v96h6l52-48v48h13v-96zm77 81h-28v-28h19v-13h-19v-27h28v-13h-52v96h52v-15zm85-57q0-24-20-24h-42v97l41-1q21 0 21-21v-51zm52 85h-35l-852 853v35q0 15 6 31l911-913q-15-6-30-6zm71 36l-922 924q23 17 51 18l890-891q-2-28-19-51zm20 121l-820 818h69l751-748v-70zm-174 915h-9v-68h9l6 3 2 6v50l-2 6z"/><glyph glyph-name="uniF300" unicode="" horiz-adv-x="800" d="M561 1100L68 534 561-31 685 76 286 534l399 459z"/><glyph glyph-name="uniF301" unicode="" horiz-adv-x="800" d="M115 76L239-31l493 565-493 566-124-107 399-459z"/><glyph glyph-name="uniF302" unicode="" horiz-adv-x="1222" d="M611 649l458-399 108 123-566 493L45 373l108-123z"/><glyph glyph-name="uniF303" unicode="" horiz-adv-x="1222" d="M153 819L45 696l566-493 566 493-108 123-458-399z"/><glyph glyph-name="uniF304" unicode="" horiz-adv-x="2200" d="M1100 1770q-218 0-416-84-192-81-340-229t-229-340Q31 918 31 700.5T115 284Q196 93 344-55t340-230q198-84 415.5-84t416.5 84q192 82 340 230t229 339q84 199 84 416.5t-84 416.5q-81 192-229 340t-340 229q-199 84-416 84zm887-887q18-90 18-182.5T1987 518q-18-87-52.5-168.5T1851 195 1740 60.5 1605.5-50t-154-83.5T1283-186q-90-19-183-19t-183 19q-87 18-168.5 52.5T594.5-50 460 60.5 349 195t-83.5 154.5T213 518q-18 90-18 182.5T213 883q18 88 52.5 169.5t83.5 154T460 1341t134.5 111 154 83.5T917 1587q90 19 183 19t183-19q87-17 168.5-51.5t154-83.5 134.5-111 111-134.5 83.5-154T1987 883zm-682 225l-124 108-448-515 448-515 124 107-355 408z"/><glyph glyph-name="uniF305" unicode="" horiz-adv-x="2200" d="M1100-369q218 0 416 84 192 82 340 230t229 339q84 199 84 416.5t-84 416.5q-81 192-229 340t-340 229q-198 84-416 84t-416-84q-192-81-340-229t-229-340Q31 918 31 700.5T115 284Q196 93 344-55t340-230q198-84 416-84zM213 518q-18 90-18 182.5T213 883q18 88 52.5 169.5t83.5 154 111 134 134.5 111 154 84T917 1587q90 19 183 19t183-19q87-17 168.5-51.5t154-83.5 134.5-111 111-134.5 83.5-154T1987 883q18-90 18-182.5T1987 518q-18-87-52.5-168.5T1851 195 1740 60.5 1605.5-50t-154-83.5T1283-186q-90-19-183-19t-183 19q-87 18-168.5 52.5T594.5-50 460 60.5 349 195t-83.5 154.5T213 518zm682-225l124-107 448 515-448 515-124-108 355-407z"/><glyph glyph-name="uniF306" unicode="" horiz-adv-x="2200" d="M1100 1770q-218 0-416-84-192-81-340-229t-229-340Q31 918 31 700.5T115 284Q196 93 344-55t340-230q198-84 416-84t416 84q192 82 340 230t229 339q84 199 84 416.5t-84 416.5q-81 192-229 340t-340 229q-198 84-416 84zm887-887q18-90 18-182.5T1987 518q-18-87-52.5-168.5T1851 195 1740 60.5 1605.5-50t-154-83.5T1283-186q-90-19-183-19t-183 19q-87 18-168.5 52.5T594.5-50 460 60.5 349 195t-83.5 154.5T213 518q-18 90-18 182.5T213 883q18 88 52.5 169.5t83.5 154T460 1341t134.5 111 154 83.5T917 1587q90 19 183 19t183-19q87-17 168.5-51.5t154-83.5 134.5-111 111-134.5 83.5-154T1987 883zM585 619l108-123 407 354 407-354 108 123-515 449z"/><glyph glyph-name="uniF307" unicode="" horiz-adv-x="2200" d="M1100 1770q-218 0-416-84-192-81-340-229t-229-340Q31 918 31 700.5T115 284Q196 93 344-55t340-230q198-84 416-84t416 84q192 82 340 230t229 339q84 199 84 416.5t-84 416.5q-81 192-229 340t-340 229q-198 84-416 84zm887-887q18-90 18-182.5T1987 518q-18-87-52.5-168.5T1851 195 1740 60.5 1605.5-50t-154-83.5T1283-186q-90-19-183-19t-183 19q-87 18-168.5 52.5T594.5-50 460 60.5 349 195t-83.5 154.5T213 518q-18 90-18 182.5T213 883q18 88 52.5 169.5t83.5 154T460 1341t134.5 111 154 83.5T917 1587q90 19 183 19t183-19q87-17 168.5-51.5t154-83.5 134.5-111 111-134.5 83.5-154T1987 883zm-887-332L693 906 585 782l515-449 515 449-108 124z"/><glyph glyph-name="uniF308" unicode="" horiz-adv-x="1150" d="M989 1064L575 650l-414 414L45 949l414-414L45 120 161 5l414 414L989 5l116 115-414 415 414 414z"/><glyph glyph-name="uniF309" unicode="" horiz-adv-x="1100" d="M632 23v430h430v164H632v430H468V617H38V453h430V23h164z"/><glyph glyph-name="uniF30A" unicode="" horiz-adv-x="1100" d="M38 617h1024V453H38v164z"/><glyph glyph-name="uniF30B" unicode="" horiz-adv-x="1222" d="M155 633L43 513l427-397 709 665-112 120-598-561z"/><glyph glyph-name="uniF30C" unicode="" horiz-adv-x="600" d="M217 323h166l9 737H208l9-708v-29zm12-285q29-29 71.5-29T372 38t28.5 71.5-29 71.5-71 29-71.5-29-29-71.5T229 38z"/><glyph glyph-name="uniF30D" unicode="" horiz-adv-x="900" d="M613 533q155 93 155 256 0 57-23 107t-65.5 87-100 57-125.5 20q-74 0-135-22-58-21-100-62-39-38-61.5-90T132 772l-1-23h161l2 20q5 66 45.5 103T449 909q66 0 106.5-35t40.5-91q0-48-22-80.5T496 636q-76-46-112-98-37-56-36-130v-85h164v66q0 26 4.5 44t14.5 33q22 31 82 67zM430 210q-42 0-71-29t-29-71.5T359 38t71.5-29 71 29 28.5 71.5-28.5 71.5-71.5 29z"/><glyph glyph-name="uniF30E" unicode="" horiz-adv-x="2200" d="M1409 1126l-309-309-309 309-116-116 309-309-309-309 116-116 309 309 309-309 116 116-309 309 309 309zm-309 644q-218 0-416-84-192-81-340-229t-229-340Q31 918 31 700.5T115 284Q196 93 344-55t340-230q198-84 415.5-84t416.5 84q192 82 340 230t229 339q84 199 84 416.5t-84 416.5q-81 192-229 340t-340 229q-199 84-416 84zm887-887q18-90 18-182.5T1987 518q-18-87-52.5-168.5T1851 195 1740 60.5 1605.5-50t-154-83.5T1283-186q-90-19-183-19t-183 19q-87 18-168.5 52.5T594.5-50 460 60.5 349 195t-83.5 154.5T213 518q-18 90-18 182.5T213 883q18 88 52.5 169.5t83.5 154T460 1341t134.5 111 154 83.5T917 1587q90 19 183 19t183-19q87-17 168.5-51.5t154-83.5 134.5-111 111-134.5 83.5-154T1987 883z"/><glyph glyph-name="uniF30F" unicode="" horiz-adv-x="2200" d="M1182 1226h-164V783H575V619h443V176h164v443h443v164h-443v443zm-82 544q-218 0-416-84-192-81-340-229t-229-340Q31 918 31 700.5T115 284Q196 93 344-55t340-230q198-84 416-84t416 84q192 82 340 230t229 339q84 199 84 416.5t-84 416.5q-81 192-229 340t-340 229q-198 84-416 84zm887-887q18-90 18-182.5T1987 518q-18-87-52.5-168.5T1851 195 1740 60.5 1605.5-50t-154-83.5T1283-186q-90-19-183-19t-183 19q-87 18-168.5 52.5T594.5-50 460 60.5 349 195t-83.5 154.5T213 518q-18 90-18 182.5T213 883q18 88 52.5 169.5t83.5 154T460 1341t134.5 111 154 83.5T917 1587q90 19 183 19t183-19q87-17 168.5-51.5t154-83.5 134.5-111 111-134.5 83.5-154T1987 883z"/><glyph glyph-name="uniF310" unicode="" horiz-adv-x="2200" d="M623 783h954V619H623v164zm477 987q-218 0-416-84-192-81-340-229t-229-340Q31 918 31 700.5T115 284Q196 93 344-55t340-230q198-84 415.5-84t416.5 84q192 82 340 230t229 339q84 199 84 416.5t-84 416.5q-81 192-229 340t-340 229q-199 84-416 84zm887-887q18-90 18-182.5T1987 518q-18-87-52.5-168.5T1851 195 1740 60.5 1605.5-50t-154-83.5T1283-186q-90-19-183-19t-183 19q-87 18-168.5 52.5T594.5-50 460 60.5 349 195t-83.5 154.5T213 518q-18 90-18 182.5T213 883q18 88 52.5 169.5t83.5 154T460 1341t134.5 111 154 83.5T917 1587q90 19 183 19t183-19q87-17 168.5-51.5t154-83.5 134.5-111 111-134.5 83.5-154T1987 883z"/><glyph glyph-name="uniF311" unicode="" horiz-adv-x="2200" d="M959 499L645 791 533 670l426-396 708 664-112 120zm141 1271q-217 0-416-84-192-82-340-229.5T115 1117Q31 918 31 700.5T115 285Q196 93 344-55t340-229q199-84 416-84t416 84q192 81 340 229t229 340q84 198 84 415.5t-84 416.5q-81 192-229 339.5T1516 1686q-199 84-416 84zm887-887q18-90 18-182.5T1987 518q-18-87-52.5-168.5T1851 195 1740 60.5 1605.5-50t-154-83.5T1283-186q-90-18-183-18t-183 18q-87 18-168.5 52.5T594.5-50 460 60.5 349 195t-83.5 154.5T213 518q-18 90-18 182.5T213 883q18 88 52.5 169.5t83.5 154 111 134T594.5 1451t154 83.5T917 1587q90 19 183 19t183-19q87-18 168.5-52.5t154-83.5 134.5-110.5 111-134 83.5-154T1987 883z"/><glyph glyph-name="uniF312" unicode="" horiz-adv-x="2200" d="M1100 1770q-218 0-416-84-192-81-340-229t-229-340Q31 918 31 700.5T115 284Q196 93 344-55t340-230q198-84 416-84t416 84q192 82 340 230t229 339q84 199 84 416.5t-84 416.5q-81 192-229 340t-340 229q-198 84-416 84zm887-887q18-90 18-182.5T1987 518q-18-87-52.5-168.5T1851 195 1740 60.5 1605.5-50t-154-83.5T1283-186q-90-19-183-19t-183 19q-87 18-168.5 52.5T594.5-50 460 60.5 349 195t-83.5 154.5T213 518q-18 90-18 182.5T213 883q18 88 52.5 169.5t83.5 154T460 1341t134.5 111 154 83.5T917 1587q90 19 183 19t183-19q87-17 168.5-51.5t154-83.5 134.5-111 111-134.5 83.5-154T1987 883zm-969-363v-28h164l9 734h-182v-29zm82-144q-42 0-71-29t-29.5-71 29-71.5 72-29.5 71.5 29 29 71.5-29 71.5-72 29z"/><glyph glyph-name="uniF313" unicode="" horiz-adv-x="2200" d="M1100 1770q-218 0-416-84-192-81-340-229t-229-340Q31 918 31 700.5T115 284Q196 93 344-55t340-230q198-84 415.5-84t416.5 84q192 82 340 230t229 339q84 199 84 416.5t-84 416.5q-81 192-229 340t-340 229q-199 84-416 84zm841-714q36-83 54-171 18-91 18-184.5T1995 516q-18-88-53-170t-84.5-155.5-112-135.5T1610-56.5 1454.5-141 1284-194q-91-19-184.5-19T916-194q-89 18-171 53T589.5-56.5 454 55 342.5 190.5 258 346t-53 170q-18 91-18 184.5T205 885q18 88 53 170.5t84.5 155.5T454 1346.5t135.5 112 155.5 84 171 52.5q90 19 183.5 19t184.5-19q88-18 170.5-52.5t155.5-84 135.5-112 112-135.5 83.5-155zm-861-680q-42 0-71-28.5t-29-71 29-71.5 71-29 71 29 29 71.5-29 71-71 28.5zm249 774q-42 37-99.5 57t-125.5 20q-74 0-135-22-58-21-100-62-39-38-61-90t-26-113l-1-23h161l1 20q5 66 46 103t110 37q66 0 106.5-35t40.5-92q0-48-22-80.5t-78-66.5q-76-46-111-99-38-55-37-129v-85h163v66q0 26 5 44t15 33q21 31 82 67 154 93 154 256 0 57-22.5 107t-65.5 87z"/><glyph glyph-name="uniF314" unicode="" horiz-adv-x="2200" d="M1100 1770q-218 0-416-84-192-81-340-229t-229-340Q31 918 31 700.5T115 284Q196 93 344-55t340-230q198-84 415.5-84t416.5 84q192 82 340 230t229 339q84 199 84 416.5t-84 416.5q-81 192-229 340t-340 229q-199 84-416 84zm425-1378l-116-116-309 309-309-309-116 116 309 309-309 309 116 116 309-309 309 309 116-116-309-309z"/><glyph glyph-name="uniF315" unicode="" horiz-adv-x="2200" d="M1100 1770q-218 0-416-84-192-81-340-229t-229-340Q31 918 31 700.5T115 284Q196 93 344-55t340-230q198-84 416-84t416 84q192 82 340 230t229 339q84 199 84 416.5t-84 416.5q-81 192-229 340t-340 229q-198 84-416 84zm525-1151h-443V176h-164v443H575v164h443v443h164V783h443V619z"/><glyph glyph-name="uniF316" unicode="" horiz-adv-x="2200" d="M1100 1770q-218 0-416-84-192-81-340-229t-229-340Q31 918 31 700.5T115 284Q196 93 344-55t340-230q198-84 415.5-84t416.5 84q192 82 340 230t229 339q84 199 84 416.5t-84 416.5q-81 192-229 340t-340 229q-199 84-416 84zm477-1151H623v164h954V619z"/><glyph glyph-name="uniF317" unicode="" horiz-adv-x="2200" d="M1100 1770q-217 0-416-84-192-82-340-229.5T115 1117Q31 918 31 700.5T115 285Q196 93 344-55t340-229q199-84 416-84t416 84q192 81 340 229t229 340q84 198 84 415.5t-84 416.5q-81 192-229 339.5T1516 1686q-199 84-416 84zM959 274L533 670l112 121 314-292 596 559 112-120z"/><glyph glyph-name="uniF318" unicode="" horiz-adv-x="2200" d="M1100 1770q-218 0-416-84-192-81-340-229t-229-340Q31 918 31 700.5T115 284Q196 93 344-55t340-230q198-84 416-84t416 84q192 82 340 230t229 339q84 199 84 416.5t-84 416.5q-81 192-229 340t-340 229q-198 84-416 84zm-62-544h153l-9-734h-164l-9 734h29zm134-1022q-29-29-71.5-29t-72 29-29 71.5T1029 347t71.5 29 71.5-29 29-71.5-29-71.5z"/><glyph glyph-name="uniF319" unicode="" horiz-adv-x="2200" d="M1100 1770q-218 0-416-84-192-81-340-229t-229-340Q31 918 31 700.5T115 284Q196 93 344-55t340-230q198-84 415.5-84t416.5 84q192 82 340 230t229 339q84 199 84 416.5t-84 416.5q-81 192-229 340t-340 229q-199 84-416 84zm51-1565q-29-29-71-29t-71 29-29 71.5 29 71 71 28.5 71-28.5 29-71-29-71.5zm112 495q-61-36-82-67-10-15-15-33t-5-44v-66H998v85q-1 74 37 129 35 53 111 99 56 34 78 66.5t22 80.5q0 57-40.5 92t-106.5 35q-69 0-110-37t-46-103l-1-20H781l1 23q4 61 26 113t61 90q42 41 100 62 61 22 135 22 68 0 125.5-20t100-57 65-87 22.5-107q0-163-154-256z"/><glyph glyph-name="uniF31E" unicode="" horiz-adv-x="2200" d="M1100 1770q-218 0-416-84-192-81-340-229t-229-340Q31 918 31 700.5T115 284Q196 93 344-55t340-230q198-84 415.5-84t416.5 84q192 82 340 230t229 339q84 199 84 416.5t-84 416.5q-81 192-229 340t-340 229q-199 84-416 84zm887-887q18-90 18-182.5T1987 518q-18-87-52.5-168.5T1851 195 1740 60.5 1605.5-50t-154-83.5T1283-186q-90-19-183-19t-183 19q-87 18-168.5 52.5T594.5-50 460 60.5 349 195t-83.5 154.5T213 518q-18 90-18 182.5T213 883q18 88 52.5 169.5t83.5 154T460 1341t134.5 111 154 83.5T917 1587q90 19 183 19t183-19q87-17 168.5-51.5t154-83.5 134.5-111 111-134.5 83.5-154T1987 883zm-450-95l-628 381q-23 14-50.5 14t-51-13.5-37-37T757 1082V320q0-27 13.5-50.5t37-37.5 50.5-14 52 15l626 380q24 13 37.5 37t13.5 50.5-13.5 50T1537 788zM921 431v539l444-269z"/><glyph glyph-name="uniF31F" unicode="" horiz-adv-x="2200" d="M1100-369q217 0 416 84 192 82 340 230t229 339q84 199 84 416.5t-84 416.5q-81 192-229 340t-340 229q-199 84-416.5 84T684 1686q-192-81-340-229t-229-340Q31 918 31 700.5T115 284Q196 93 344-55t340-230q198-84 416-84zM213 518q-18 90-18 182.5T213 883q18 88 52.5 169.5t83.5 154T460 1341t134.5 111 154 83.5T917 1587q90 19 183 19t183-19q87-17 168.5-51.5t154-83.5 134.5-111 111-134.5 83.5-154T1987 883q18-90 18-182.5T1987 518q-18-87-52.5-168.5T1851 195 1740 60.5 1605.5-50t-154-83.5T1283-186q-90-19-183-19t-183 19q-87 18-168.5 52.5T594.5-50 460 60.5 349 195t-83.5 154.5T213 518zm1087 631h164V253h-164v896zm-564 0h164V253H736v896z"/><glyph glyph-name="uniF320" unicode="" horiz-adv-x="2200" d="M1100 1770q-218 0-416-84-192-81-340-229t-229-340Q31 918 31 700.5T115 284Q196 93 344-55t340-230q198-84 416-84t416 84q192 82 340 230t229 339q84 199 84 416.5t-84 416.5q-81 192-229 340t-340 229q-198 84-416 84zm887-887q18-90 18-182.5T1987 518q-18-87-52.5-168.5T1851 195 1740 60.5 1605.5-50t-154-83.5T1283-186q-90-19-183-19t-183 19q-87 18-168.5 52.5T594.5-50 460 60.5 349 195t-83.5 154.5T213 518q-18 90-18 182.5T213 883q18 88 52.5 169.5t83.5 154T460 1341t134.5 111 154 83.5T917 1587q90 19 183 19t183-19q87-17 168.5-51.5t154-83.5 134.5-111 111-134.5 83.5-154T1987 883zm-539 266H752q-41 0-70.5-29.5T652 1049V353q0-42 29.5-71t70.5-29h696q41 0 70.5 29t29.5 71v696q0 41-29.5 70.5T1448 1149zm-64-732H816v568h568V417z"/><glyph glyph-name="uniF321" unicode="" horiz-adv-x="1400" d="M1158 507q-37-89-106-158T894 242q-93-39-194-39t-194 39q-89 38-158 107T242 507q-39 92-39 193.5T242 894q37 89 106 158t158 107q93 39 194 39 22 0 44-2l-135-155 124-107 291 333-291 334-124-107 115-132h-24q-135 0-257-52-119-50-210.5-141.5T91 958Q39 835 39 700.5T91 443q50-118 141.5-210T443 91q122-52 257-52t257 52q119 50 210.5 142T1309 443q52 123 52 258h-164q0-102-39-194z"/><glyph glyph-name="uniF32A" unicode="" horiz-adv-x="2200" d="M1100 1770q-218 0-416-84-192-81-340-229t-229-340Q31 918 31 700.5T115 284Q196 93 344-55t340-230q198-84 415.5-84t416.5 84q192 82 340 230t229 339q84 199 84 416.5t-84 416.5q-81 192-229 340t-340 229q-199 84-416 84zm887-887q18-90 18-182.5T1987 518q-18-87-52.5-168.5T1851 195 1740 60.5 1605.5-50t-154-83.5T1283-186q-90-19-183-19t-183 19q-87 18-168.5 52.5T594.5-50 460 60.5 349 195t-83.5 154.5T213 518q-18 90-18 182.5T213 883q18 88 52.5 169.5t83.5 154T460 1341t134.5 111 154 83.5T917 1587q90 19 183 19t183-19q87-17 168.5-51.5t154-83.5 134.5-111 111-134.5 83.5-154T1987 883zm-887 343q-40 0-69-28t-29-68.5 28.5-69 69-28.5 69.5 28.5 29 68.5-29 68.5-69 28.5zm-45-269h-37V175h164v782h-127z"/><glyph glyph-name="uniF32B" unicode="" horiz-adv-x="2200" d="M1182 460v766h-164V460L735 706 628 583l472-412 472 412-107 123zm-82 1310q-218 0-416-84-192-81-340-229t-229-340Q31 918 31 700.5T115 284Q196 93 344-55t340-230q198-84 416-84t416 84q192 82 340 230t229 339q84 199 84 416.5t-84 416.5q-81 192-229 340t-340 229q-198 84-416 84zm887-887q18-90 18-182.5T1987 518q-18-87-52.5-168.5T1851 195 1740 60.5 1605.5-50t-154-83.5T1283-186q-90-19-183-19t-183 19q-87 18-168.5 52.5T594.5-50 460 60.5 349 195t-83.5 154.5T213 518q-18 90-18 182.5T213 883q18 88 52.5 169.5t83.5 154T460 1341t134.5 111 154 83.5T917 1587q90 19 183 19t183-19q87-17 168.5-51.5t154-83.5 134.5-111 111-134.5 83.5-154T1987 883z"/><glyph glyph-name="uniF32C" unicode="" horiz-adv-x="2200" d="M1100 1770q-218 0-416-84-192-81-340-229t-229-340Q31 918 31 700.5T115 284Q196 93 344-55t340-230q198-84 416-84t416 84q192 82 340 230t229 339q84 199 84 416.5t-84 416.5q-81 192-229 340t-340 229q-198 84-416 84zm887-887q18-90 18-182.5T1987 518q-18-87-52.5-168.5T1851 195 1740 60.5 1605.5-50t-154-83.5T1283-186q-90-19-183-19t-183 19q-87 18-168.5 52.5T594.5-50 460 60.5 349 195t-83.5 154.5T213 518q-18 90-18 182.5T213 883q18 88 52.5 169.5t83.5 154T460 1341t134.5 111 154 83.5T917 1587q90 19 183 19t183-19q87-17 168.5-51.5t154-83.5 134.5-111 111-134.5 83.5-154T1987 883z"/><glyph glyph-name="uniF32D" unicode="" horiz-adv-x="1350" d="M208-48l910 910V195h164v947H336V978h666L92 67z"/><glyph glyph-name="uniF32E" unicode="" horiz-adv-x="1300" d="M906 1007V843h172V52H222v791h172v164H58V-112h1184v1119H906zm-338 282V561h164v728l180-180 116 116-378 378-378-378 116-116z"/><glyph glyph-name="uniF342" unicode="" horiz-adv-x="1900" d="M950 1582q-175 0-335-68-154-65-273-184t-184-274Q90 896 90 721.5T158 387q65-155 184-274T615-71q160-67 335-67t335 67q154 65 273 184t184 274q68 160 68 334.5t-68 334.5q-65 155-184 274t-273 184q-160 68-335 68zm696-860q0-142-55-271-26-62-63.5-118t-85-103.5T1339 144t-118-64q-129-54-271-54T679 80q-62 26-118 64t-103.5 85.5-85 103.5T309 451q-55 129-55 270.5T309 992q26 62 63.5 118t85 103.5T561 1299t118 64q129 54 271 54t271-54q62-26 118-64t103.5-85.5 85-103.5 63.5-118q55-129 55-271v1zM751 915V776l138 91h3V445h166v564H892z"/><glyph glyph-name="uniF343" unicode="" horiz-adv-x="1900" d="M950 1582q-175 0-335-68-154-65-273-184t-184-274Q90 896 90 721.5T158 387q65-155 184-274T615-71q160-67 335-67t335 67q154 65 273 184t184 274q68 160 68 334.5t-68 334.5q-65 155-184 274t-273 184q-160 68-335 68zm696-860q0-142-55-271-26-62-63.5-118t-85-103.5T1339 144t-118-64q-129-54-271-54T679 80q-62 26-118 64t-103.5 85.5-85 103.5T309 451q-55 129-55 270.5T309 992q26 62 63.5 118t85 103.5T561 1299t118 64q129 54 271 54t271-54q62-26 118-64t103.5-85.5 85-103.5 63.5-118q55-129 55-271v1zM963 574l133 117q38 33 59 62 36 50 36 100.5t-27 89.5-77 60.5-118 21.5-120-24-80.5-68T740 832v-3h151v4q0 30 20.5 50t52 20 49.5-15.5 18-39-13-45-42-47.5L750 556V445h447v125H963v4z"/><glyph glyph-name="uniF344" unicode="" horiz-adv-x="1900" d="M950 1582q-175 0-335-68-154-65-273-184t-184-274Q90 896 90 721.5T158 387q65-155 184-274T615-71q160-67 335-67t335 67q154 65 273 184t184 274q68 160 68 334.5t-68 334.5q-65 155-184 274t-273 184q-160 68-335 68zm696-860q0-142-55-271-26-62-63.5-118t-85-103.5T1339 144t-118-64q-129-54-271-54T679 80q-62 26-118 64t-103.5 85.5-85 103.5T309 451q-55 129-55 270.5T309 992q26 62 63.5 118t85 103.5T561 1299t118 64q129 54 271 54t271-54q62-26 118-64t103.5-85.5 85-103.5 63.5-118q55-129 55-271v1zm-592 15v3q52 9 85 44t33 85q0 48-26.5 83t-75.5 54-116 19q-68 0-120.5-23.5t-81-66T724 837h149q0 30 20.5 48.5t54 18.5 53-15.5 19.5-42-19-42.5-52-16h-68V678h68q35 0 54.5-16t19.5-43-20-44-53-17q-36 0-57 16.5T871 619H713q3-57 32.5-100t81.5-66 120-23q74 0 129.5 21t85.5 60 30 91q0 57-37 92.5T1054 737z"/><glyph glyph-name="uniF345" unicode="" horiz-adv-x="1900" d="M950 1582q-175 0-335-68-154-65-273-184t-184-274Q90 896 90 721.5T158 387q65-155 184-274T615-71q160-67 335-67t335 67q154 65 273 184t184 274q68 160 68 334.5t-68 334.5q-65 155-184 274t-273 184q-160 68-335 68zm696-860q0-142-55-271-26-62-63.5-118t-85-103.5T1339 144t-118-64q-129-54-271-54T679 80q-62 26-118 64t-103.5 85.5-85 103.5T309 451q-55 129-55 270.5T309 992q26 62 63.5 118t85 103.5T561 1299t118 64q129 54 271 54t271-54q62-26 118-64t103.5-85.5 85-103.5 63.5-118q55-129 55-271v1zm-526 287H891q-73-111-120-191-46-77-85-152V529h278v-84h156v84h67v127h-67v353zM968 649H824v5q32 68 66 127 26 44 75 120h3V649z"/><glyph glyph-name="uniF346" unicode="" horiz-adv-x="1900" d="M950 1582q-175 0-335-68-154-65-273-184t-184-274Q90 896 90 721.5T158 387q65-155 184-274T615-71q160-67 335-67t335 67q154 65 273 184t184 274q68 160 68 334.5t-68 334.5q-65 155-184 274t-273 184q-160 68-335 68zm696-860q0-142-55-271-26-62-63.5-118t-85-103.5T1339 144t-118-64q-129-54-271-54T679 80q-62 26-118 64t-103.5 85.5-85 103.5T309 451q-55 129-55 270.5T309 992q26 62 63.5 118t85 103.5T561 1299t118 64q129 54 271 54t271-54q62-26 118-64t103.5-85.5 85-103.5 63.5-118q55-129 55-271v1zm-634 106q-44 0-76.5-18.5T888 759h-3l8 125h267v125H766l-25-333h145q12 19 32.5 30t44.5 11q35 0 56.5-22.5t21.5-59-21.5-58.5-56.5-22q-31 0-54 16.5T881 614H732q0-53 29.5-95t81.5-65.5T962 430q69 0 122.5 26t82.5 73 29 109q0 55-23.5 98t-65.5 67.5-95 24.5z"/><glyph glyph-name="uniF347" unicode="" horiz-adv-x="1900" d="M950-138q175 0 335 67 154 65 273 184t184 274q68 160 68 334.5t-68 334.5q-65 155-184 274t-273 184q-160 68-335 68t-335-68q-154-65-273-184t-184-274Q90 896 90 721.5T158 387q65-155 184-274T615-71q160-67 335-67zM254 722q0 141 55 270 26 62 63.5 118t85 103.5T561 1299t118 64q129 54 271 54t271-54q62-26 118-64t103.5-85.5 85-103.5 63.5-118q55-129 55-270.5T1591 451q-26-62-63.5-118t-85-103.5T1339 144t-118-64q-129-54-271-54T679 80q-62 26-118 64t-103.5 85.5-85 103.5T309 451q-55 129-55 271zm710-292q67 0 120.5 26t83 73 29.5 106q0 53-24 95.5t-66.5 66.5-95.5 24-91-26q-36-24-51-66h-3q-4 51 7 90t34.5 60 55.5 21q24 0 42.5-11.5T1030 859h160q-6 48-37.5 85.5t-81 59T963 1025q-76 0-133.5-36t-89-103.5T709 727q0-66 17.5-122t50-95 80.5-59.5T964 430zm-2 275q33 0 55-21.5t22-53-22-53.5-54.5-22-54.5 22-22 53.5 22 53 54 21.5z"/><glyph glyph-name="uniF348" unicode="" horiz-adv-x="1900" d="M950 1582q-175 0-335-68-154-65-273-184t-184-274Q90 896 90 721.5T158 387q65-155 184-274T615-71q160-67 335-67t335 67q154 65 273 184t184 274q68 160 68 334.5t-68 334.5q-65 155-184 274t-273 184q-160 68-335 68zm696-860q0-142-55-271-26-62-63.5-118t-85-103.5T1339 144t-118-64q-129-54-271-54T679 80q-62 26-118 64t-103.5 85.5-85 103.5T309 451q-55 129-55 270.5T309 992q26 62 63.5 118t85 103.5T561 1299t118 64q129 54 271 54t271-54q62-26 118-64t103.5-85.5 85-103.5 63.5-118q55-129 55-271v1zM753 884h270v-3L793 445h173l220 440v124H753V884z"/><glyph glyph-name="uniF349" unicode="" horiz-adv-x="1900" d="M950 1582q-175 0-335-68-154-65-273-184t-184-274Q90 896 90 721.5T158 387q65-155 184-274T615-71q160-67 335-67t335 67q154 65 273 184t184 274q68 160 68 334.5t-68 334.5q-65 155-184 274t-273 184q-160 68-335 68zm696-860q0-142-55-271-26-62-63.5-118t-85-103.5T1339 144t-118-64q-129-54-271-54T679 80q-62 26-118 64t-103.5 85.5-85 103.5T309 451q-55 129-55 270.5T309 992q26 62 63.5 118t85 103.5T561 1299t118 64q129 54 271 54t271-54q62-26 118-64t103.5-85.5 85-103.5 63.5-118q55-129 55-271v1zm-585 20v3q52 9 86 45.5t34 84.5q0 43-29 77t-81 53.5-119.5 19.5-119.5-19.5-81-53.5-29-77q0-48 34-84.5t87-45.5v-3q-64-6-104-45.5T699 598q0-50 31-88t88-59 133-21 133 21 88.5 59 31.5 88q0 58-39.5 98T1061 742zM952 915q28 0 47-18t19-44.5-19-44.5-47.5-18-47 18-18.5 44.5 18.5 44.5 47.5 18zm0-375q-35 0-56.5 20T874 610.5t21.5 50.5 56 20 56-20 21.5-50.5-21.5-50.5-55.5-20z"/><glyph glyph-name="uniF34A" unicode="" horiz-adv-x="1900" d="M950 1582q-175 0-335-68-154-65-273-184t-184-274Q90 896 90 721.5T158 387q65-155 184-274T615-71q160-67 335-67t335 67q154 65 273 184t184 274q68 160 68 334.5t-68 334.5q-65 155-184 274t-273 184q-160 68-335 68zm696-860q0-142-55-271-26-62-63.5-118t-85-103.5T1339 144t-118-64q-129-54-271-54T679 80q-62 26-118 64t-103.5 85.5-85 103.5T309 451q-55 129-55 270.5T309 992q26 62 63.5 118t85 103.5T561 1299t118 64q129 54 271 54t271-54q62-26 118-64t103.5-85.5 85-103.5 63.5-118q55-129 55-271v1zm-694 303q-67 0-120.5-26t-84-73T717 820q0-53 25-95.5t67.5-66.5 94.5-24q56 0 94 26 36 24 49 66h3q4-53-6.5-91.5t-33.5-59-54-20.5q-26 0-45.5 11.5T885 596H724q7-48 38.5-85.5t81.5-59T953 430q79 0 136.5 36t88 103 30.5 159q0 66-17 122t-49.5 95-81.5 59.5-108 20.5zm2-275q-32 0-54.5 21.5T877 825t22.5 53.5T954 900t54-21.5 22-53.5-22-53.5-54-21.5z"/><glyph glyph-name="uniF34B" unicode="" horiz-adv-x="1900" d="M950 1582q-175 0-335-68-154-65-273-184t-184-274Q90 896 90 721.5T158 387q65-155 184-274T615-71q160-67 335-67t335 67q154 65 273 184t184 274q68 160 68 334.5t-68 334.5q-65 155-184 274t-273 184q-160 68-335 68zm696-860q0-142-55-271-26-62-63.5-118t-85-103.5T1339 144t-118-64q-129-54-271-54T679 80q-62 26-118 64t-103.5 85.5-85 103.5T309 451q-55 129-55 270.5T309 992q26 62 63.5 118t85 103.5T561 1299t118 64q129 54 271 54t271-54q62-26 118-64t103.5-85.5 85-103.5 63.5-118q55-129 55-271v1zM495 915V776l138 91h3V445h166v564H636zm669 110q-76 0-132-35t-86.5-102T915 728.5 945.5 569t86.5-103 131.5-36 131.5 36 86.5 103.5 30.5 160-30.5 159T1295 990t-131 35zm0-468q-36 0-58 42-22 46-22 130t22 128q21 41 57.5 41t57.5-41q22-44 22-128t-22-130q-21-42-57-42z"/><glyph glyph-name="uniF34C" unicode="" horiz-adv-x="1900" d="M950 1582q-175 0-335-68-154-65-273-184t-184-274Q90 896 90 721.5T158 387q65-155 184-274T615-71q160-67 335-67t335 67q154 65 273 184t184 274q68 160 68 334.5t-68 334.5q-65 155-184 274t-273 184q-160 68-335 68zm696-860q0-142-55-271-26-62-63.5-118t-85-103.5T1339 144t-118-64q-129-54-271-54T679 80q-62 26-118 64t-103.5 85.5-85 103.5T309 451q-55 129-55 270.5T309 992q26 62 63.5 118t85 103.5T561 1299t118 64q129 54 271 54t271-54q62-26 118-64t103.5-85.5 85-103.5 63.5-118q55-129 55-271v1zM547 915V776l138 91h3V445h166v564H688zm421 0V776l139 91h3V445h165v564h-165z"/><glyph glyph-name="uniF34D" unicode="" horiz-adv-x="1900" d="M950 1582q-175 0-335-68-154-65-273-184t-184-274Q90 896 90 721.5T158 387q65-155 184-274T615-71q160-67 335-67t335 67q154 65 273 184t184 274q68 160 68 334.5t-68 334.5q-65 155-184 274t-273 184q-160 68-335 68zm696-860q0-142-55-271-26-62-63.5-118t-85-103.5T1339 144t-118-64q-129-54-271-54T679 80q-62 26-118 64t-103.5 85.5-85 103.5T309 451q-55 129-55 270.5T309 992q26 62 63.5 118t85 103.5T561 1299t118 64q129 54 271 54t271-54q62-26 118-64t103.5-85.5 85-103.5 63.5-118q55-129 55-271v1zM499 915V776l138 91h3V445h166v564H640zm638-341l133 117q38 33 59 62 36 50 36 100.5t-27 89.5-76.5 60.5-118 21.5-120.5-24-80.5-68T914 832v-3h151v4q0 30 20.5 50t52 20 49.5-15.5 18-39-13-45-42-47.5L924 556V445h447v125h-233v4h-1z"/><glyph glyph-name="uniF34E" unicode="" horiz-adv-x="1900" d="M950 1582q-175 0-335-68-154-65-273-184t-184-274Q90 896 90 721.5T158 387q65-155 184-274T615-71q160-67 335-67t335 67q154 65 273 184t184 274q68 160 68 334.5t-68 334.5q-65 155-184 274t-273 184q-160 68-335 68zm696-860q0-142-55-271-26-62-63.5-118t-85-103.5T1339 144t-118-64q-129-54-271-54T679 80q-62 26-118 64t-103.5 85.5-85 103.5T309 451q-55 129-55 270.5T309 992q26 62 63.5 118t85 103.5T561 1299t118 64q129 54 271 54t271-54q62-26 118-64t103.5-85.5 85-103.5 63.5-118q55-129 55-271v1zM500 915V776l138 91h3V445h166v564H641zm758-178v3q52 9 84.5 44t32.5 85q0 48-26.5 83t-75.5 54-115 19q-69 0-121.5-23.5t-81-66T927 837h149q0 30 20.5 48.5t54 18.5 53-15.5 19.5-42-19-42.5-51-16h-69V678h68q35 0 54.5-16t19.5-43-20-44-53-17q-36 0-57 16.5t-22 44.5H916q3-57 32.5-100t81.5-66 120-23q74 0 129.5 21t85.5 60 30 91q0 57-37 92.5T1258 737z"/><glyph glyph-name="uniF34F" unicode="" horiz-adv-x="1900" d="M950 1582q-175 0-335-68-154-65-273-184t-184-274Q90 896 90 721.5T158 387q65-155 184-274T615-71q160-67 335-67t335 67q154 65 273 184t184 274q68 160 68 334.5t-68 334.5q-65 155-184 274t-273 184q-160 68-335 68zm696-860q0-142-55-271-26-62-63.5-118t-85-103.5T1339 144t-118-64q-129-54-271-54T679 80q-62 26-118 64t-103.5 85.5-85 103.5T309 451q-55 129-55 270.5T309 992q26 62 63.5 118t85 103.5T561 1299t118 64q129 54 271 54t271-54q62-26 118-64t103.5-85.5 85-103.5 63.5-118q55-129 55-271v1zM495 915V776l139 91h3V445h165v564H637zm851 94h-229q-73-111-121-191-46-77-84-152V529h277v-84h157v84h67v127h-67v353zm-152-360h-144v5q32 68 66 127 25 44 75 120h3V649z"/><glyph glyph-name="uniF350" unicode="" horiz-adv-x="1900" d="M950 1582q-175 0-335-68-154-65-273-184t-184-274Q90 896 90 721.5T158 387q65-155 184-274T615-71q160-67 335-67t335 67q154 65 273 184t184 274q68 160 68 334.5t-68 334.5q-65 155-184 274t-273 184q-160 68-335 68zm696-860q0-142-55-271-26-62-63.5-118t-85-103.5T1339 144t-118-64q-129-54-271-54T679 80q-62 26-118 64t-103.5 85.5-85 103.5T309 451q-55 129-55 270.5T309 992q26 62 63.5 118t85 103.5T561 1299t118 64q129 54 271 54t271-54q62-26 118-64t103.5-85.5 85-103.5 63.5-118q55-129 55-271v1zM501 915V776l138 91h3V445h166v564H642zm715-87q-45 0-77-18.5t-48-50.5h-3l8 125h267v125H969l-25-333h145q12 19 32.5 30t44.5 11q35 0 57-22.5t22-59-22-58.5-57-22q-31 0-54 16.5t-28 42.5H935q1-53 30-95t81.5-65.5T1165 430q70 0 123 26t82.5 73 29.5 109q0 55-24 98t-66 67.5-94 24.5z"/><glyph glyph-name="uniF351" unicode="" horiz-adv-x="1900" d="M950 1582q-175 0-335-68-154-65-273-184t-184-274Q90 896 90 721.5T158 387q65-155 184-274T615-71q160-67 335-67t335 67q154 65 273 184t184 274q68 160 68 334.5t-68 334.5q-65 155-184 274t-273 184q-160 68-335 68zm696-860q0-142-55-271-26-62-63.5-118t-85-103.5T1339 144t-118-64q-129-54-271-54T679 80q-62 26-118 64t-103.5 85.5-85 103.5T309 451q-55 129-55 270.5T309 992q26 62 63.5 118t85 103.5T561 1299t118 64q129 54 271 54t271-54q62-26 118-64t103.5-85.5 85-103.5 63.5-118q55-129 55-271v1zM497 915V776l138 91h3V445h166v564H638zm723-94q-54 0-92-26-36-24-51-66h-3q-4 51 7 90t34.5 60 55.5 21q24 0 42.5-11.5T1238 859h161q-7 48-38.5 85.5t-81 59T1171 1025q-76 0-133.5-36t-89-103.5T917 727q0-66 17.5-122t50-95 81-59.5T1172 430q68 0 121 26t83 73 30 106q0 53-24.5 95.5t-67 66.5-94.5 24zm-50-266q-32 0-54 22t-22 53.5 22 53 54.5 21.5 54.5-21.5 22-53-22-53.5-55-22z"/><glyph glyph-name="uniF352" unicode="" horiz-adv-x="1900" d="M950 1582q-175 0-335-68-154-65-273-184t-184-274Q90 896 90 721.5T158 387q65-155 184-274T615-71q160-67 335-67t335 67q154 65 273 184t184 274q68 160 68 334.5t-68 334.5q-65 155-184 274t-273 184q-160 68-335 68zm696-860q0-142-55-271-26-62-63.5-118t-85-103.5T1339 144t-118-64q-129-54-271-54T679 80q-62 26-118 64t-103.5 85.5-85 103.5T309 451q-55 129-55 270.5T309 992q26 62 63.5 118t85 103.5T561 1299t118 64q129 54 271 54t271-54q62-26 118-64t103.5-85.5 85-103.5 63.5-118q55-129 55-271v1zM525 915V776l138 91h4V445h165v564H667zm411-31h270v-3L976 445h174l220 440v124H936V884z"/><glyph glyph-name="uniF353" unicode="" horiz-adv-x="1900" d="M950 1582q-175 0-335-68-154-65-273-184t-184-274Q90 896 90 721.5T158 387q65-155 184-274T615-71q160-67 335-67t335 67q154 65 273 184t184 274q68 160 68 334.5t-68 334.5q-65 155-184 274t-273 184q-160 68-335 68zm696-860q0-142-55-271-26-62-63.5-118t-85-103.5T1339 144t-118-64q-129-54-271-54T679 80q-62 26-118 64t-103.5 85.5-85 103.5T309 451q-55 129-55 270.5T309 992q26 62 63.5 118t85 103.5T561 1299t118 64q129 54 271 54t271-54q62-26 118-64t103.5-85.5 85-103.5 63.5-118q55-129 55-271v1zM484 915V776l139 91h3V445h165v564H626zm783-173v3q52 9 86 45.5t34 84.5q0 43-29 77t-81 53.5-119.5 19.5-120-19.5T956 952t-29-77q0-48 34.5-84.5T1049 745v-3q-64-6-104-45.5T905 598q0-50 31-88t88-59 132.5-21 133 21 89 59 31.5 88q0 58-40 98t-103 46zm-110 173q29 0 48-18t19-44.5-19-44.5-47.5-18-47.5 18-19 44.5 19 44.5 47 18zm0-375q-34 0-56 20t-22 50.5 22 50.5 56.5 20 56-20 21.5-50.5-21.5-50.5-56.5-20z"/><glyph glyph-name="uniF354" unicode="" horiz-adv-x="1900" d="M950 1582q-175 0-335-68-154-65-273-184t-184-274Q90 896 90 721.5T158 387q65-155 184-274T615-71q160-67 335-67t335 67q154 65 273 184t184 274q68 160 68 334.5t-68 334.5q-65 155-184 274t-273 184q-160 68-335 68zm696-860q0-142-55-271-26-62-63.5-118t-85-103.5T1339 144t-118-64q-129-54-271-54T679 80q-62 26-118 64t-103.5 85.5-85 103.5T309 451q-55 129-55 270.5T309 992q26 62 63.5 118t85 103.5T561 1299t118 64q129 54 271 54t271-54q62-26 118-64t103.5-85.5 85-103.5 63.5-118q55-129 55-271v1zM515 915V776l138 91h3V445h166v564H656zm653 110q-67 0-120.5-26t-84-73T933 820q0-53 25-95.5t67.5-66.5 94.5-24q56 0 94 26 36 24 49 66h3q5-53-6-91.5t-34-59-54-20.5q-26 0-45.5 11.5T1102 596H940q7-48 39-85.5t81.5-59T1170 430q78 0 135.5 36t88.5 103 31 159q0 66-17.5 122t-50 95-81.5 59.5-108 20.5zm2-275q-32 0-54.5 21.5T1093 825t22.5 53.5T1170 900t54-21.5 22-53.5-22-53.5-54-21.5z"/><glyph glyph-name="uniF355" unicode="" horiz-adv-x="1900" d="M950 1582q-175 0-335-68-154-65-273-184t-184-274Q90 896 90 721.5T158 387q65-155 184-274T615-71q160-67 335-67t335 67q154 65 273 184t184 274q68 160 68 334.5t-68 334.5q-65 155-184 274t-273 184q-160 68-335 68zm696-860q0-142-55-271-26-62-63.5-118t-85-103.5T1339 144t-118-64q-129-54-271-54T679 80q-62 26-118 64t-103.5 85.5-85 103.5T309 451q-55 129-55 270.5T309 992q26 62 63.5 118t85 103.5T561 1299t118 64q129 54 271 54t271-54q62-26 118-64t103.5-85.5 85-103.5 63.5-118q55-129 55-271v1zM683 574l133 117q38 33 59 62 36 50 36 100.5T884 943t-77 60.5-118 21.5-120-24-80.5-68T460 832v-3h151v4q0 30 20.5 50t52 20 49.5-15.5 18-39-13-45-42-47.5L470 556V445h447v125H683v4zm547 451q-75 0-131.5-35T1012 888t-30-159.5 30-159.5 86-103 132-36 132 36 86 103.5 30 160-30.5 159-86 101.5-131.5 35zm0-468q-36 0-57 42-23 46-23 130t23 128q21 41 57 41t57-41q22-44 22-128t-22-130q-21-42-57-42z"/><glyph glyph-name="uniF357" unicode="" horiz-adv-x="1629" d="M1478 713q0 24-16.5 40.5T1421 770h-77q-23 0-40-16.5t-17-40.5v-19h-1q0-96-37-183-35-85-100.5-150T998 260q-87-37-183-37t-183 37q-85 36-150 101T381 511q-37 87-37 183t37 184q36 84 101 149.5T632 1128q74 31 154 36l-123-132q-16-18-15-41.5t18-40.5l57-52q17-16 41-15t40 18l284 306q18 17 18 42v1q0 26-18 43l-284 305q-16 18-40 19t-41-16l-57-52q-17-16-18-40t15-41l104-112q-127-9-241-65-111-54-195.5-144.5T200 942q-48-119-48-248 0-135 52-258 50-119 142-211T557 83q123-52 258-52 132 0 253 50 116 48 207.5 136T1419 419q54 119 59 249v45z"/><glyph glyph-name="uniF358" unicode="" horiz-adv-x="1629" d="M553 1271h-88q-24 0-41-17t-17-41V175q0-24 17-41t41-17l88 1q24 0 40.5 17t16.5 40v1038q1 24-16 41t-41 17zm611 0h-88q-24 0-41-17t-17-41V175q0-24 17-41t41-17h88q24 0 41 17t17 41v1038q0 24-17 41t-41 17z"/><glyph glyph-name="uniF359" unicode="" horiz-adv-x="1629" d="M1540 756l-995 602q-16 9-34.5 9t-35-9.5-25.5-26-9-35.5V92q0-19 9-35.5t25.5-26 35-9.5T545 31l995 602q16 9 25.5 25.5t9.5 35.5-9.5 35.5T1540 756z"/><glyph glyph-name="uniF35A" unicode="" horiz-adv-x="1222" d="M859 1468L281 721 859-25l63 50-540 696 540 697z"/><glyph glyph-name="uniF35B" unicode="" horiz-adv-x="1222" d="M300 1418l540-697L300 25l63-50 578 746-578 747z"/><glyph glyph-name="uniF35C" unicode="" horiz-adv-x="1920" d="M214 473l49-63 697 541 697-541 49 63-746 579z"/><glyph glyph-name="uniF35D" unicode="" horiz-adv-x="1920" d="M960 492l-697 541-49-63 746-579 746 579-49 63z"/><glyph glyph-name="uniF35E" unicode="" horiz-adv-x="1920" d="M1648 1477L960 789l-688 688-67-68 687-687L205 34l67-68 688 688 688-688 67 68-687 688 687 687z"/><glyph glyph-name="uniF360" unicode="" horiz-adv-x="1222" d="M719 1106L421 721l298-384 63 49-260 335 260 336z"/><glyph glyph-name="uniF361" unicode="" horiz-adv-x="1222" d="M440 1057l260-336-260-335 63-49 298 384-298 385z"/><glyph glyph-name="uniF362" unicode="" horiz-adv-x="1920" d="M575 614l50-64 335 260 335-260 50 64-385 298z"/><glyph glyph-name="uniF363" unicode="" horiz-adv-x="1920" d="M960 633L625 893l-50-64 385-298 385 298-50 64z"/><glyph glyph-name="uniF364" unicode="" horiz-adv-x="1920" d="M1286 1115L960 789l-326 326-68-67 326-326-326-327 68-67 326 326 326-326 68 67-326 327 326 326z"/><glyph glyph-name="uniF8FF" unicode="" horiz-adv-x="2320" d="M1062 1596q53 63 79 140 29 83 20 163-71-3-149.5-43T882 1756t-79-133q-33-85-22-161 76-6 156 34 73 37 125 100zM510 0q39 2 78 14 19 6 68 27 42 18 72 26 44 11 92.5 11T913 66q27-8 71.5-27t67.5-26q40-11 82-10 61 1 115 35 46 30 94 87 31 36 82 111 57 84 99 183 16 37 32 87-29 11-66 36-75 50-122 121-65 99-67 227-1 107 51 200 37 66 97 119 28 24 58 43-73 107-194 155-69 27-154 33-44 4-91-4-39-7-83-21-28-10-74-28t-64-24q-31-10-51-10-25 0-64 13-10 4-75 29-50 20-85 29-48 12-90 12-120-2-225-66T89 1197q-79-137-79-324 0-166 59-344 54-163 141-288 51-75 85-115 51-61 99-91Q451-2 510 0z"/></font>
</defs>
</svg>
