<?xml version="1.0" encoding="UTF-8" standalone="no"?>
<!-- Created with Inkscape (http://www.inkscape.org/) -->
<svg
   xmlns:svg="http://www.w3.org/2000/svg"
   xmlns="http://www.w3.org/2000/svg"
   version="1.0"
   width="100"
   height="100"
   id="svg2">
  <defs
     id="defs4" />
  <path
     d="M 65.753906,24.929688 L 43.640625,24.929688 L 43.640625,61.316406 C 43.64061,64.457037 44.044906,66.449223 44.853516,67.292969 C 45.662092,68.136721 47.554669,68.60547 50.53125,68.699219 L 50.53125,70 L 30,70 L 30,68.699219 C 32.953121,68.60547 34.839838,68.136721 35.660156,67.292969 C 36.480461,66.449223 36.890617,64.457037 36.890625,61.316406 L 36.890625,31.011719 C 36.890617,27.871136 36.480461,25.878951 35.660156,25.035156 C 34.839838,24.191452 32.953121,23.722703 30,23.628906 L 30,22.328125 L 79.394531,22.328125 L 79.394531,23.628906 C 76.441358,23.722703 74.554642,24.191452 73.734375,25.035156 C 72.914018,25.878951 72.503862,27.871136 72.503906,31.011719 L 72.503906,61.316406 C 72.503862,64.457037 72.914018,66.449223 73.734375,67.292969 C 74.554642,68.136721 76.441358,68.60547 79.394531,68.699219 L 79.394531,70 L 58.898437,70 L 58.898437,68.699219 C 61.828092,68.60547 63.70309,68.14258 64.523437,67.310547 C 65.343713,66.478519 65.753869,64.480474 65.753906,61.316406 L 65.753906,24.929688 z "
     style="font-size:72px;font-style:normal;font-weight:normal;fill:black;fill-opacity:1;stroke:none;stroke-width:1px;stroke-linecap:butt;stroke-linejoin:miter;stroke-opacity:1;font-family:Times New Roman"
     id="text2042" />
</svg>
